<svg xmlns="http://www.w3.org/2000/svg" viewBox="0 0 3509.81 1399.53"><defs><style>.cls-1{isolation:isolate;}.cls-2{fill:#fafafa;}.cls-3{fill:#accee0;}.cls-4{fill:#b6c7db;}.cls-5{fill:#bf8756;}.cls-6{fill:#d49a65;}.cls-7{fill:#ffcea2;}.cls-8{fill:#e8d6c8;}.cls-23,.cls-27,.cls-35,.cls-41,.cls-61,.cls-8{mix-blend-mode:multiply;}.cls-9{fill:#1f2437;}.cls-10{fill:#346e99;}.cls-11{fill:#4585b5;}.cls-12{fill:#9fadbf;}.cls-13{fill:#ecab92;}.cls-14{fill:#dae2eb;}.cls-15{fill:#9bb1cf;}.cls-16{fill:#667c16;}.cls-17{fill:#758e19;}.cls-18{fill:#a2b43c;}.cls-19{fill:#90a035;}.cls-20{fill:#97a737;}.cls-21{fill:#fffefc;}.cls-22{fill:#b4b3b2;}.cls-23{fill:#eeb67e;}.cls-24{fill:#b6cae6;}.cls-25{fill:#da4345;}.cls-26{fill:#f79e86;}.cls-27{fill:#edb1a1;}.cls-28{fill:#50a6c7;}.cls-29{fill:#ddbf51;}.cls-30{fill:#345a80;}.cls-31{fill:#213952;}.cls-32{fill:#fbe9e2;}.cls-33{fill:#a64324;}.cls-34{fill:#3a7991;}.cls-36{fill:#b2b2b2;}.cls-37{fill:#3b5b73;}.cls-38{fill:#a67246;}.cls-39{fill:#d1ddeb;}.cls-40{fill:#d8e1eb;}.cls-41,.cls-42{fill:#a5b8d4;}.cls-43{fill:#f0ba89;}.cls-44{fill:#a3642c;}.cls-45{fill:#451900;}.cls-46{fill:#cad5e0;}.cls-47{fill:#ebebeb;}.cls-48{fill:#6b3f65;}.cls-49{fill:#3d4a66;}.cls-50{mix-blend-mode:screen;}.cls-51{fill:#7499b0;}.cls-52{fill:#323d54;}.cls-53{fill:#597687;}.cls-54{fill:#233947;}.cls-55{fill:#304b5e;}.cls-56{fill:#2e4a5c;}.cls-57{fill:#3b5c73;}.cls-58{fill:#6a85a6;}.cls-59{fill:#b8c4d1;}.cls-60{fill:#fff;}.cls-61{fill:#d6dee6;}.cls-62{fill:#8093b0;}.cls-63{fill:#d95e4b;}.cls-64{fill:#324569;}.cls-65{fill:#72849c;}.cls-66{fill:#913a20;}.cls-67{fill:#37556b;}.cls-68{fill:#4e7999;}.cls-69{fill:#734f30;}.cls-70{fill:#416f8c;}.cls-71{fill:#d24a4e;}.cls-72{fill:#5c504b;}.cls-73{fill:#638bb3;}.cls-74,.cls-79{fill:#621c00;}.cls-75{fill:#fad8d2;}.cls-76{fill:#383d61;}.cls-77{fill:#bdcde0;}.cls-78{fill:#94bbd4;}.cls-79{fill-rule:evenodd;}.cls-80{fill:#606060;}</style></defs><g class="cls-1"><g id="_Layer_" data-name="&lt;Layer&gt;"><path class="cls-2" d="M517.72,1493.67s-339-165.36-308.12-511.59c30.2-338.26,491.1-476.55,798.12-484.44,301.48-7.76,422.08,97.11,643.9,78.13s407-210.14,677.47-176.57c257.12,31.91,353.36,115.32,519,187.78,212.05,92.76,430.05-83.49,659.55,88.8,266,199.72-80.82,824.39-80.82,824.39Z" transform="translate(-133.81 -115.03)"/><path class="cls-3" d="M3643.63,1496.83c0,9.79-785.7,17.73-1754.91,17.73s-1754.91-7.94-1754.91-17.73,785.7-17.74,1754.91-17.74S3643.63,1487,3643.63,1496.83Z" transform="translate(-133.81 -115.03)"/><path class="cls-4" d="M866,1070.68c-4.9.65-8.79,10.15-8.79,21.81s3.89,21.15,8.79,21.81Z" transform="translate(-133.81 -115.03)"/><path class="cls-5" d="M1400.74,1150v0Z" transform="translate(-133.81 -115.03)"/><rect class="cls-6" x="1244.79" y="1009.24" width="155.95" height="140.79" transform="translate(2511.72 2044.23) rotate(180)"/><rect class="cls-7" x="1315.62" y="1009.24" width="14.28" height="140.79" transform="translate(2511.72 2044.23) rotate(180)"/><rect class="cls-8" x="1321.95" y="1009.24" width="1.64" height="140.79" transform="translate(2511.72 2044.23) rotate(180)"/><rect class="cls-7" x="1255.42" y="1119.32" width="47.44" height="21.69" transform="translate(2424.47 2145.29) rotate(180)"/><path class="cls-4" d="M703.25,1341.93c0,80,65.07,145,145.06,145s145-65.06,145-145-65.06-145.06-145-145.06S703.25,1261.94,703.25,1341.93Zm13.79,0c0-72.39,58.88-131.29,131.27-131.29s131.27,58.9,131.27,131.29-58.9,131.27-131.27,131.27S717,1414.3,717,1341.93Z" transform="translate(-133.81 -115.03)"/><rect class="cls-9" x="1063.09" y="1254.91" width="37.07" height="14.56" transform="translate(1852.96 2541.34) rotate(-172.4)"/><path class="cls-4" d="M1110.13,1333.45l-17.45-69a3.29,3.29,0,0,0-4-2.38l-2.15.55a3.29,3.29,0,0,0-2.38,4l17.45,69Z" transform="translate(-133.81 -115.03)"/><polygon class="cls-4" points="962.8 1220.56 977.04 1223.76 1046.87 971.97 1032.63 968.77 962.8 1220.56"/><path class="cls-9" d="M696.53,1341.93c0,83.68,68.08,151.76,151.78,151.76s151.76-68.08,151.76-151.76S932,1190.15,848.31,1190.15,696.53,1258.23,696.53,1341.93Zm14.43,0c0-75.74,61.61-137.37,137.35-137.37s137.35,61.63,137.35,137.37S924,1479.28,848.31,1479.28,711,1417.65,711,1341.93Z" transform="translate(-133.81 -115.03)"/><path class="cls-10" d="M806.93,1182l5.36,14.83a148.83,148.83,0,0,1,36.91-4.61c70.76,0,130.26,49.39,145.76,115.51l16-.41c-16-74.66-82.44-130.8-161.76-130.8A164.54,164.54,0,0,0,806.93,1182Z" transform="translate(-133.81 -115.03)"/><path class="cls-4" d="M1162.7,1340.61c0,80,65.07,145,145.07,145s145-65.06,145-145-65.07-145.06-145-145.06S1162.7,1260.62,1162.7,1340.61Zm13.8,0c0-72.39,58.88-131.29,131.27-131.29S1439,1268.22,1439,1340.61s-58.9,131.27-131.27,131.27S1176.5,1413,1176.5,1340.61Z" transform="translate(-133.81 -115.03)"/><path class="cls-9" d="M1156,1340.61c0,83.68,68.08,151.76,151.78,151.76s151.76-68.08,151.76-151.76-68.08-151.78-151.76-151.78S1156,1256.91,1156,1340.61Zm14.43,0c0-75.74,61.61-137.37,137.35-137.37s137.35,61.63,137.35,137.37S1383.49,1478,1307.77,1478,1170.42,1416.33,1170.42,1340.61Z" transform="translate(-133.81 -115.03)"/><path class="cls-10" d="M1147,1299.42l15.42,3.28c16.76-64.34,75.36-112,144.89-112a149.62,149.62,0,0,1,117.78,57.39l13.06-8.77A165.2,165.2,0,0,0,1307.31,1175C1230.23,1175,1165.3,1228,1147,1299.42Z" transform="translate(-133.81 -115.03)"/><circle class="cls-4" cx="1173.94" cy="1225.58" r="29.51"/><polygon class="cls-11" points="962.49 1212.34 979.76 1219.92 1030.98 1036.88 1012.53 1031.73 962.49 1212.34"/><polygon class="cls-4" points="710.7 1213.12 725.08 1209.33 788.89 925.18 776.75 923.33 710.7 1213.12"/><path class="cls-11" d="M896.34,1116.61,891,1136.5c81,42.53,149.52,115,209.88,203.67l9.36-17.21C1043.81,1221.64,971.67,1157.47,896.34,1116.61Z" transform="translate(-133.81 -115.03)"/><path class="cls-9" d="M1104.41,1373.92c-22.32,0-40.47-18.54-40.47-41.34s18.15-41.33,40.46-41.33a39.32,39.32,0,0,1,4.37.24l202.55,17.25a31.72,31.72,0,0,1,27.87,31.79c0,17.62-14,31.94-31.27,31.94Zm0-79.53c-20.57,0-37.31,17.14-37.31,38.19s16.74,38.2,37.31,38.2l203.51-1.45c15.52,0,28.14-12.92,28.14-28.8a28.58,28.58,0,0,0-25-28.66l-202.54-17.24A37.18,37.18,0,0,0,1104.4,1294.39Z" transform="translate(-133.81 -115.03)"/><polygon class="cls-12" points="1174.03 1231.13 1097.67 1039.95 1031.94 1024.99 1032.82 1021.12 1100.59 1036.54 1100.97 1037.52 1173.86 1220.01 1240.19 1038.34 1243.92 1039.69 1174.03 1231.13"/><path class="cls-11" d="M1108.48,1318.38l180.88,15.12-146-124.78,8.18-17.32L1317.22,1331a14.38,14.38,0,0,1,5.41,13.71,14.22,14.22,0,0,1-15,11.92l-206.72-16.41Z" transform="translate(-133.81 -115.03)"/><polygon class="cls-11" points="762.25 995.59 764.13 1012.01 1006.77 1095.12 1013.22 1075.57 762.25 995.59"/><path class="cls-9" d="M833.87,1341.92a14.43,14.43,0,1,0,14.43-14.43A14.43,14.43,0,0,0,833.87,1341.92Z" transform="translate(-133.81 -115.03)"/><path class="cls-9" d="M1212.56,1077.47l4.72,14.51a6,6,0,0,1-3.67,7.5l-36.33,13.12a6,6,0,0,1-3.32.22l-65.46-14.21a6,6,0,0,1-3-10.08l5.39-5.47a6,6,0,0,1,4.38-1.79c9.61.17,43.46.72,54.28.21,9.17-.44,26.66-5.28,35.61-7.92A6,6,0,0,1,1212.56,1077.47Z" transform="translate(-133.81 -115.03)"/><path class="cls-4" d="M870.1,1022.32l44.42-67.67L961,957.59c2.32,4.36,1.92,9.55-2,12.41l-37.31-3-31.33,47.49a5.18,5.18,0,0,0,2.8,7.8L927.8,1033,924.13,1045,873,1030.13A5.17,5.17,0,0,1,870.1,1022.32Z" transform="translate(-133.81 -115.03)"/><path class="cls-11" d="M846.49,1350.08a9.48,9.48,0,0,0,11.33-7.18L919.56,1068l-18.51-4.16-61.74,274.89A9.5,9.5,0,0,0,846.49,1350.08Z" transform="translate(-133.81 -115.03)"/><path class="cls-4" d="M1066.92,1332.89a38.63,38.63,0,1,1,38.62,38.62A38.67,38.67,0,0,1,1066.92,1332.89Zm5.24,0a33.39,33.39,0,1,0,33.38-33.38A33.42,33.42,0,0,0,1072.16,1332.89Z" transform="translate(-133.81 -115.03)"/><rect class="cls-4" x="1080.07" y="1361.08" width="67.26" height="8.79" transform="translate(2030.61 -164.06) rotate(75.81)"/><rect class="cls-9" x="1107.67" y="1391.66" width="37.07" height="14.56" transform="translate(1923.64 2819.53) rotate(-172.4)"/><path class="cls-9" d="M1100.46,1332.89a5.08,5.08,0,1,0,5.08-5.08A5.09,5.09,0,0,0,1100.46,1332.89Z" transform="translate(-133.81 -115.03)"/><path class="cls-9" d="M1302.68,1340.6a5.08,5.08,0,1,0,5.08-5.08A5.07,5.07,0,0,0,1302.68,1340.6Z" transform="translate(-133.81 -115.03)"/><path class="cls-9" d="M843.22,1341.92a5.08,5.08,0,1,0,5.08-5.08A5.07,5.07,0,0,0,843.22,1341.92Z" transform="translate(-133.81 -115.03)"/><path class="cls-4" d="M1232.71,1149.55h173a3.89,3.89,0,0,1,0,7.77h-173l-17-19.29a2.6,2.6,0,1,1,3.9-3.43Z" transform="translate(-133.81 -115.03)"/><path class="cls-10" d="M1103.17,1289.11a43,43,0,0,1,27.91,10.24l-22.55,5.69a27.84,27.84,0,0,0-26.7,45.25l-11.54,10.19a43.23,43.23,0,0,1,32.88-71.37Z" transform="translate(-133.81 -115.03)"/><polygon class="cls-10" points="971.67 1174.17 1122.46 1187.21 1138.96 1201.42 969.35 1189.48 971.67 1174.17"/><path class="cls-9" d="M922.84,968.35l38.42,2.58a4.59,4.59,0,0,0,4.89-4.27l.32-4.74a4.6,4.6,0,0,0-4.28-4.89l-38.41-2.58Z" transform="translate(-133.81 -115.03)"/><path class="cls-10" d="M864.91,1067.68c17.15.73,30.78,11.33,30.78,24.33s-13.63,23.6-30.78,24.33Z" transform="translate(-133.81 -115.03)"/><path class="cls-13" d="M778.83,1272.39a15.72,15.72,0,1,0,15.72-15.72A15.72,15.72,0,0,0,778.83,1272.39Z" transform="translate(-133.81 -115.03)"/><path class="cls-13" d="M1354.37,1402.18a15.72,15.72,0,1,0,15.72-15.72A15.72,15.72,0,0,0,1354.37,1402.18Z" transform="translate(-133.81 -115.03)"/><rect class="cls-14" x="1764.58" width="21.22" height="124.77"/><rect class="cls-14" x="2284.25" width="21.22" height="124.77"/><rect class="cls-15" x="1764.58" y="104.6" width="21.22" height="20.17"/><rect class="cls-15" x="2284.25" y="104.6" width="21.22" height="20.17"/><path class="cls-16" d="M1564.81,1349.57c9.65-81.67,6-165.81-2.24-235.26-1-8.3-10.88-25.55-16.64-31.62l-7.16.31c9,6.85,18.34,24,19.25,32.93,8,78.65,6.41,150.62,1,232.1Z" transform="translate(-133.81 -115.03)"/><path class="cls-17" d="M1575,1360.81c3.93-95.74,15.47-192.1,34.76-271.21,2.3-9.45,20.93-55.95,28.66-62.23l8.53,1.27c-11.75,6.76-29.67,53.23-32,63.41-20.32,89.74-28.21,173-32.87,267.72Z" transform="translate(-133.81 -115.03)"/><path class="cls-18" d="M1549.09,1222.74c5,48.68,10,92.93,6.4,140.29l3.89.78c2.79-51-.6-99-5.75-142.69-1-8.3-15.4-27.49-21.16-33.56l-7.16.31C1534.34,1194.72,1548.18,1213.82,1549.09,1222.74Z" transform="translate(-133.81 -115.03)"/><path class="cls-18" d="M1634,1275.47c-33,5.27-51.25,28.33-55.35,69l3,2.9c6.51-44.81,24.51-66.9,53.86-68.85Z" transform="translate(-133.81 -115.03)"/><path class="cls-18" d="M1320.79,1057.48c1.25-2.14,47.48-88.92,127.84-79.2,81.15,9.81,101.92,111.41,101.92,111.41s-52.54-75.43-114.33-70.55S1320.79,1057.48,1320.79,1057.48Z" transform="translate(-133.81 -115.03)"/><path class="cls-16" d="M1499.05,1058.07a1.08,1.08,0,0,1-1-1.22c3.59-20.88-.66-44-10.57-57.45a1,1,0,0,1,1.68-1.24c10.23,13.91,14.63,37.64,10.95,59A1,1,0,0,1,1499.05,1058.07Z" transform="translate(-133.81 -115.03)"/><path class="cls-16" d="M1447.36,1044.81a1.08,1.08,0,0,1-1-1.22c3.6-20.87-.65-44-10.56-57.44a1,1,0,1,1,1.68-1.24c10.23,13.91,14.63,37.64,10.94,59A1,1,0,0,1,1447.36,1044.81Z" transform="translate(-133.81 -115.03)"/><path class="cls-16" d="M1392.37,1051.83a1.07,1.07,0,0,1-1-1.2c2.84-19-1.54-40.17-10.89-52.7a1.05,1.05,0,0,1,.22-1.47,1,1,0,0,1,1.46.22c9.66,12.94,14.19,34.75,11.27,54.26A1,1,0,0,1,1392.37,1051.83Z" transform="translate(-133.81 -115.03)"/><path class="cls-16" d="M1320.79,1057.48s106.79-9.64,148.26-1.41c36.15,7.17,81.5,33.62,81.5,33.62s-40-72-98.17-79.18C1392.38,1003.13,1320.79,1057.48,1320.79,1057.48Z" transform="translate(-133.81 -115.03)"/><path class="cls-18" d="M1590.34,1354.32c-15-86.32-20-175.7-16.31-249.47.44-8.82,7.89-24.85,13.28-31.41l1,6.89c-7.12,12.07-9.31,16.66-9.65,26.13-2.93,83.51,3.36,159.73,14,246Z" transform="translate(-133.81 -115.03)"/><path class="cls-18" d="M1574.43,1107.86c52.07-76.41,60-200.15,20-299.38C1576.92,908.84,1565.25,1020.4,1574.43,1107.86Z" transform="translate(-133.81 -115.03)"/><path class="cls-16" d="M1574,1105.89a1,1,0,0,1-1-1c-5.74-83,.92-180,20.37-296.61a1,1,0,0,1,1.2-.86,1,1,0,0,1,.86,1.2c-19.42,116.47-26.08,213.33-20.35,296.12a1,1,0,0,1-1,1.12Z" transform="translate(-133.81 -115.03)"/><path class="cls-16" d="M1572.51,1029.67a1.05,1.05,0,0,1-.54-2l36.68-21.86a1,1,0,0,1,1.07,1.8L1573,1029.52A1,1,0,0,1,1572.51,1029.67Z" transform="translate(-133.81 -115.03)"/><path class="cls-16" d="M1574.69,975.6a1,1,0,0,1-.54-1.94l40.61-24.24a1,1,0,0,1,1.07,1.79l-40.61,24.24A1,1,0,0,1,1574.69,975.6Z" transform="translate(-133.81 -115.03)"/><path class="cls-16" d="M1578.94,921.78a1,1,0,0,1-.9-.51,1,1,0,0,1,.36-1.44L1613,899.3a1,1,0,0,1,1.06,1.8l-34.58,20.53A1,1,0,0,1,1578.94,921.78Z" transform="translate(-133.81 -115.03)"/><path class="cls-19" d="M1318,1289s54.69-84,118.42-93.18C1512,1185,1545,1208.63,1545,1208.63,1485.85,1094.92,1288.31,1145.41,1318,1289Z" transform="translate(-133.81 -115.03)"/><path class="cls-18" d="M1545,1208.63S1519.64,1094,1405.06,1118c-129.6,27.15-87.07,171-87.07,171C1288.31,1145.41,1485.85,1094.92,1545,1208.63Z" transform="translate(-133.81 -115.03)"/><path class="cls-16" d="M1459,1189.31a1,1,0,0,1-1-.91c-2-15.41-.12-26.29,15.07-35.7-13.21-9.08-21.5-20.14-21.73-29.1a1,1,0,0,1,1-1.07,1,1,0,0,1,1.07,1c.23,8.47,8.93,19.59,22.17,28.33l1.41.93-1.45.85c-15.58,9.07-17.46,19.12-15.47,34.48a1,1,0,0,1-.91,1.17Z" transform="translate(-133.81 -115.03)"/><path class="cls-16" d="M1390.42,1202.24a1,1,0,0,1-1-.8c-3.09-12.83,3.4-33.31,16.19-51.39-13.47-2-22.19-5.6-26.63-11a1,1,0,0,1,1.61-1.33c4.21,5.08,13.3,8.6,27,10.46l1.73.23-1,1.42c-13.12,17.95-19.9,38.47-16.87,51.07a1,1,0,0,1-.77,1.26Z" transform="translate(-133.81 -115.03)"/><path class="cls-16" d="M1342.08,1231.14a1.06,1.06,0,0,1-1-.67c-3.76-9.85-5.42-21.41-4.94-34.39-5.28,2.49-9.07,2.49-11.57,0a1,1,0,1,1,1.46-1.48c2,2,5.53,1.59,10.74-1.19l1.63-.87-.09,1.84c-.7,13.42.89,25.31,4.72,35.33a1,1,0,0,1-.6,1.35A1,1,0,0,1,1342.08,1231.14Z" transform="translate(-133.81 -115.03)"/><path class="cls-16" d="M1315.9,1270.88a1,1,0,0,1-1-1c-1.07-60,30.61-104.92,84.73-120.16,56.26-15.82,115.09,6.39,143.1,54a1,1,0,0,1-1.8,1.07c-27.52-46.84-85.37-68.67-140.73-53.08-53.16,15-84.26,59.12-83.22,118.1a1,1,0,0,1-1,1.07Z" transform="translate(-133.81 -115.03)"/><path class="cls-20" d="M1632.78,1275.44c61.27,3.46,89.72,50.56,104.92,115.26C1687,1362.68,1648.54,1326.58,1632.78,1275.44Z" transform="translate(-133.81 -115.03)"/><path class="cls-16" d="M1734,1385.59a1,1,0,0,1-.93-.57c-28.55-55.69-52.53-82.23-95-105.17a1,1,0,1,1,1-1.83c42.9,23.17,67.09,49.92,95.87,106a1.06,1.06,0,0,1-.45,1.41A1,1,0,0,1,1734,1385.59Z" transform="translate(-133.81 -115.03)"/><path class="cls-16" d="M1653.42,1310.17c-.83-.19-1.16-.76-1-1.32l5.22-19.62,17.65.42a1,1,0,0,1,1,1.07,1.06,1.06,0,0,1-1,1l-16-.38-4.79,18A1.05,1.05,0,0,1,1653.42,1310.17Z" transform="translate(-133.81 -115.03)"/><path class="cls-16" d="M1679.26,1342c-.85-.21-1.17-.79-1-1.34l8-26.64,19.06,1.26a1,1,0,0,1-.07,2.08l-17.47-1.15-7.57,25A1,1,0,0,1,1679.26,1342Z" transform="translate(-133.81 -115.03)"/><path class="cls-16" d="M1701.12,1365.62c-.85-.21-1.17-.8-1-1.35l7.51-24.5,14.91,4.29a1,1,0,0,1-.58,2l-12.94-3.73-6.9,22.54A1,1,0,0,1,1701.12,1365.62Z" transform="translate(-133.81 -115.03)"/><path class="cls-16" d="M1562.33,1344.62c2.68-44,4.64-84.84,19.39-125.52l6.89-6c-16.11,40.87-18.23,87.61-20.71,131.18Z" transform="translate(-133.81 -115.03)"/><rect class="cls-21" x="1366.21" y="1223.28" width="140.27" height="97.3"/><rect class="cls-22" x="1366.21" y="1223.28" width="140.27" height="4.27"/><polygon class="cls-23" points="1436.26 1320.58 1366.21 1320.58 1366.21 1223.28 1395.76 1223.28 1436.26 1320.58"/><path class="cls-18" d="M1613.27,1093.22s5.27-120.6,89.92-137.9c104.5-21.36,141,150.18,141,150.18C1733.45,1051.92,1677.94,1016.42,1613.27,1093.22Z" transform="translate(-133.81 -115.03)"/><path class="cls-19" d="M1613.27,1093.22s-13-44.51,46.14-88c81.7-60.08,180.89,96.26,180.89,96.26s-103.63-58-159.12-53.19C1630.7,1052.7,1613.27,1093.22,1613.27,1093.22Z" transform="translate(-133.81 -115.03)"/><path class="cls-16" d="M1777.24,1068.61a1.13,1.13,0,0,1-.36-.06,1,1,0,0,1-.62-1.34c5.47-14.89,6.89-25.51-1.29-39l-.61-1,1.08-.49c11.42-5.1,20-13.59,22.49-22.15a1,1,0,0,1,2,.58c-2.54,8.86-11.14,17.59-22.59,23,7.9,13.64,6.3,25,.87,39.75A1.05,1.05,0,0,1,1777.24,1068.61Z" transform="translate(-133.81 -115.03)"/><path class="cls-16" d="M1734.42,1042.5c-.8-.16-1.15-.72-1-1.29,4.13-17.51,4.34-29.5-6.39-42.72l-.73-.9,1-.64c12-7.89,20.43-19,22-29a1.08,1.08,0,0,1,1.2-.87,1.06,1.06,0,0,1,.86,1.2c-1.67,10.26-10.06,21.57-22,29.74,10.5,13.48,10.19,26.27,6.09,43.62A1,1,0,0,1,1734.42,1042.5Z" transform="translate(-133.81 -115.03)"/><path class="cls-16" d="M1678.72,1044.34a1.07,1.07,0,0,1-1-1.16c2.13-18,1-30-11.1-41.18l-.83-.78.84-.76c11-9.91,18.13-22.37,18.61-32.53a1,1,0,0,1,1.09-1,1.05,1.05,0,0,1,1,1.09c-.5,10.44-7.55,23.08-18.47,33.22,11.91,11.56,13,24.28,10.94,42.17A1.05,1.05,0,0,1,1678.72,1044.34Z" transform="translate(-133.81 -115.03)"/><path class="cls-16" d="M1839.05,1098.64a1.06,1.06,0,0,1-.84-.41c-52.93-69.43-99.81-104.63-139.34-104.63h-.59c-24.69.22-47.38,14.17-67.44,41.48a1,1,0,0,1-1.68-1.24c20.47-27.86,43.72-42.1,69.1-42.33h.64c40.77,0,86.89,34.5,141,105.45a1,1,0,0,1-.83,1.68Z" transform="translate(-133.81 -115.03)"/><path class="cls-18" d="M1581.72,1219.1s79.06-100.69,162.52-64.85c113.81,48.88,91.77,205.25,91.77,205.25C1734.26,1242.18,1686.53,1197.09,1581.72,1219.1Z" transform="translate(-133.81 -115.03)"/><path class="cls-16" d="M1658.59,1203.07a1.08,1.08,0,0,1-.57-.17,1,1,0,0,1-.31-1.44c16.64-25.87,43.13-45.87,65.94-49.79a1,1,0,0,1,1.21.85,1.06,1.06,0,0,1-.86,1.21c-22.26,3.82-48.2,23.46-64.53,48.86A1.05,1.05,0,0,1,1658.59,1203.07Z" transform="translate(-133.81 -115.03)"/><path class="cls-16" d="M1716.61,1232a1.05,1.05,0,0,1-.74-1.78c21.34-21.43,51.23-34.9,74.23-33.41a1,1,0,0,1-.06,2.08c-22.63-1.39-51.76,11.77-72.69,32.8A1.05,1.05,0,0,1,1716.61,1232Z" transform="translate(-133.81 -115.03)"/><path class="cls-16" d="M1767.26,1279.69a1,1,0,0,1-.71-.28,1,1,0,0,1-.07-1.47c16.72-18.23,39.85-29.86,57.65-29.08a1,1,0,0,1,1,1.09,1,1,0,0,1-1.09,1c-.57,0-1.15,0-1.73,0-16.94,0-38.5,11.23-54.28,28.43A1,1,0,0,1,1767.26,1279.69Z" transform="translate(-133.81 -115.03)"/><path class="cls-16" d="M1581.72,1219.1s6.9-53.94,88.31-50.5c112.56,4.75,161.64,183.54,161.64,183.54s-90.68-113.87-153.25-132.43C1620.93,1202.65,1581.72,1219.1,1581.72,1219.1Z" transform="translate(-133.81 -115.03)"/><rect class="cls-24" x="2315.48" y="155.19" width="11.8" height="1219.57"/><rect class="cls-24" x="3180.98" y="156.97" width="11.8" height="1219.57"/><rect class="cls-24" x="2318.14" y="1191.62" width="869.55" height="11.8"/><rect class="cls-24" x="2318.14" y="996.34" width="869.55" height="11.8"/><rect class="cls-24" x="2318.14" y="801.07" width="869.55" height="11.8"/><rect class="cls-24" x="2318.14" y="605.79" width="869.55" height="11.79"/><rect class="cls-24" x="2318.14" y="410.51" width="869.55" height="11.79"/><rect class="cls-24" x="2318.14" y="215.24" width="869.55" height="11.79"/><rect class="cls-24" x="3346.47" y="155.19" width="11.8" height="1219.57"/><rect class="cls-24" x="3181.95" y="156.97" width="11.8" height="1219.57"/><rect class="cls-24" x="3187.7" y="1191.62" width="165.28" height="11.8"/><rect class="cls-24" x="3187.7" y="996.34" width="165.28" height="11.8"/><rect class="cls-24" x="3187.7" y="801.07" width="165.28" height="11.8"/><rect class="cls-24" x="3187.7" y="605.79" width="165.28" height="11.79"/><rect class="cls-24" x="3187.7" y="410.51" width="165.28" height="11.79"/><rect class="cls-24" x="3187.7" y="215.24" width="165.28" height="11.79"/><rect class="cls-24" x="2476.91" y="155.19" width="11.8" height="1219.57"/><rect class="cls-24" x="2312.4" y="156.97" width="11.8" height="1219.57"/><rect class="cls-24" x="2318.14" y="1191.62" width="165.28" height="11.8"/><rect class="cls-24" x="2318.14" y="996.34" width="165.28" height="11.8"/><rect class="cls-24" x="2318.14" y="801.07" width="165.28" height="11.8"/><rect class="cls-24" x="2318.14" y="605.79" width="165.28" height="11.79"/><rect class="cls-24" x="2318.14" y="410.51" width="165.28" height="11.79"/><rect class="cls-24" x="2318.14" y="215.24" width="165.28" height="11.79"/><path class="cls-25" d="M2254.7,683.42s32.22,13.7,37.16,25,17.69,30.61,20.51,34.14S2337.25,766,2338.66,778s.39,27.22,2.51,32.86,17.95,43.34,13.72,51.1-27.52,33.87-27.52,33.87L2175,884.5s-10.19-37.11-8.47-42.33,9.88-16.93,10.59-20.46-2.27-24.53.7-31.05c2.7-5.92,12.24-18.42,13.41-24s4.23-69.85,9.17-74.79S2254.7,683.42,2254.7,683.42Z" transform="translate(-133.81 -115.03)"/><path class="cls-26" d="M2235.68,817.51c2.74-4.1-1.36-22.46-1.36-22.46l29.26-26.2s5.82,35.32,10.32,42.53,29.39,23.7,29.39,23.7c-35.81,7.2-67.23,9.39-88.64,0C2214.65,835.08,2232.93,821.61,2235.68,817.51Z" transform="translate(-133.81 -115.03)"/><path class="cls-27" d="M2253.91,777.12l7.85,3c-.36,17.63-16.14,28-25.09,31.92-.32-13.17-4.1-27.41-4.1-27.41Z" transform="translate(-133.81 -115.03)"/><path class="cls-26" d="M2223,712.87c11.84-5.45,48.33-9,52.56,8.53,7,28.8-1.61,37.39-9.47,48.78-2.24,19-32,42.43-46.57,32.46-6.53-4.45-15.27-20.84-14.46-39.31.68-15.4-3-23-1.88-30.58C2204.54,723.59,2210.71,718.52,2223,712.87Z" transform="translate(-133.81 -115.03)"/><path class="cls-25" d="M2284,786.7s-20.2-7.33-24.52-12.73,3.36-35-2.9-35.08c-9.22-.17-19.34-6.63-21.91-11.29-2.44-4.41-19.4-7.07-19.4-7.07a10.37,10.37,0,0,1-2.24,9.33c-3.79,4.32-8.44,3.14-9.52,7.47s.36,32.6-4.51,36.92-7.56,15-7.56,15l11.88-87L2247.6,692c22.06,9.66,39.2,21.64,40.52,41.07Z" transform="translate(-133.81 -115.03)"/><path class="cls-28" d="M2192,700.43s-10.51-9.16-9.54-17.31,17.9-26.66,43.19-26.79c26.21-.13,68.49,22.12,72.07,26.84,7.05,9.28-9.56,23.24-10.43,23.84S2192,700.43,2192,700.43Z" transform="translate(-133.81 -115.03)"/><path class="cls-29" d="M2217.61,676.74c.18,5,2.75,9,5.73,8.87s5.25-4.26,5.06-9.26-2.75-9-5.73-8.87S2217.42,671.74,2217.61,676.74Z" transform="translate(-133.81 -115.03)"/><path class="cls-30" d="M2175.65,709.87c.12,4,40.13,7.1,57.34,6.57s53-7.7,52.47-10.41S2246,693.59,2223,692.84c-13.9-.46-31.87,5.63-31.87,5.63S2175.51,705.29,2175.65,709.87Z" transform="translate(-133.81 -115.03)"/><path class="cls-31" d="M2286.07,707a2,2,0,0,1-.53-.08c-40.36-12.37-71.85-14.9-93.59-7.54a1.84,1.84,0,1,1-1.19-3.48c22.49-7.63,54.74-5.1,95.85,7.5a1.84,1.84,0,0,1-.54,3.6Z" transform="translate(-133.81 -115.03)"/><path class="cls-30" d="M2332,1217.57c5.93-36.84,13.11-89.48,11.33-105.09-2.66-23.28-23.28-72.5-23.28-72.5l-134.37-3.33s-12.64,25.94-20.63,53.88c-5.52,19.32.73,84.76,5.56,127Z" transform="translate(-133.81 -115.03)"/><path class="cls-32" d="M2283.5,835.13l-51.73,55-15.41-57.23C2236.45,841.68,2258.92,842.12,2283.5,835.13Z" transform="translate(-133.81 -115.03)"/><path class="cls-26" d="M2055.77,925s-29.9-10-32.65-12.07,4.15-19.1,5.36-20.84,10.18,3,10.18,3,0-4.2-5.28-7.58c-1.38-.89-3-5.73-3.1-6.32-1.21-6,4.19-1.83,6.14.09s29.51,27.45,29.51,27.45Z" transform="translate(-133.81 -115.03)"/><path class="cls-33" d="M2028.58,911.57c-.34-.12-.42-.34-.33-.52l6.38-13.86a.37.37,0,0,1,.68.31l-6.39,13.86A.38.38,0,0,1,2028.58,911.57Z" transform="translate(-133.81 -115.03)"/><path class="cls-33" d="M2052.48,910.11c-5.36-.76-9.21-4.15-11.48-10.08a.38.38,0,0,1,.22-.48.35.35,0,0,1,.48.21c2.19,5.75,5.74,8.89,10.83,9.62a.37.37,0,0,1,.32.42A.37.37,0,0,1,2052.48,910.11Z" transform="translate(-133.81 -115.03)"/><path class="cls-26" d="M2026.8,914.68s-12.37-5-13.06-6-4.63-8.51-4-9,3.38-1.53,4.5-.62,3.2,6.88,3.2,6.88l7.88,1.66Z" transform="translate(-133.81 -115.03)"/><path class="cls-26" d="M2027.12,908.69s-12.24-4-13.09-4.88-8.58-8.19-8-8.76,2.76-2.13,4-1.46,7.22,6.69,7.22,6.69l9,1.54Z" transform="translate(-133.81 -115.03)"/><path class="cls-26" d="M2028.61,903s-11.88-4.52-12.65-5.45-10.06-7.79-9.43-8.36,3.44-2,4.65-1.28,8.36,6.08,8.36,6.08l9,2.85Z" transform="translate(-133.81 -115.03)"/><path class="cls-26" d="M2032.14,898.11s-12.38-4.65-13.19-5.54-9.79-7.06-9.21-7.61,3.21-2,4.45-1.23,8.11,5.46,8.11,5.46c3.85.84,8.1,2.63,12.74,4.24Z" transform="translate(-133.81 -115.03)"/><path class="cls-28" d="M2198,838.41s-19.1,13.3-22.65,19.39-42.53,89.41-42.53,89.41l-66.16-42.62-19,31.1s87.86,76.77,102.58,67.63,55.52-84.87,55.52-84.87Z" transform="translate(-133.81 -115.03)"/><path class="cls-28" d="M2335.49,1054.67s-61.79,39.37-69.06,36.95-33-29.9-33-29.9-22.08,28.08-28.74,27.48-35.74-19.39-35.74-19.39,30.89-102.37,30.89-111.46S2182.23,926.24,2184,916s15.75-43,15.75-46.65-1.81-30.89-1.81-30.89L2230.22,819l4.1,59.41,44.83-64.21,40,33.92s-20.6,104.19-20,113.89S2335.49,1054.67,2335.49,1054.67Z" transform="translate(-133.81 -115.03)"/><path class="cls-34" d="M2317.55,1033.92l-34.59,4.94a10.71,10.71,0,0,1-11.72-7.32l-2.94-9.1,44.84-6.33Z" transform="translate(-133.81 -115.03)"/><path class="cls-34" d="M2180.14,1036.05l20.62,2.81a10.71,10.71,0,0,0,11.72-7.32l2.93-9.1-30.18-3.68Z" transform="translate(-133.81 -115.03)"/><path class="cls-28" d="M2335.66,972.05s-36.11-65.55-37.77-70,21.24-54,21.24-54,18.2,16.18,25.42,29,35,78.88,36.66,100-47.68,92.81-47.68,92.81-32.86-21.71-32.86-23.37S2335.66,972.05,2335.66,972.05Z" transform="translate(-133.81 -115.03)"/><g class="cls-35"><path class="cls-36" d="M2303.75,914.61a.91.91,0,0,1-.83-.52c-9.9-20.38-.37-40.93,6.19-51.36a.91.91,0,0,1,1.27-.29.92.92,0,0,1,.29,1.27c-6.35,10.11-15.6,30-6.09,49.57a.93.93,0,0,1-.43,1.24A1,1,0,0,1,2303.75,914.61Z" transform="translate(-133.81 -115.03)"/></g><g class="cls-35"><path class="cls-36" d="M2192.28,941.05a.93.93,0,0,1-.8-.45c-.41-.71-10-17.43-8.78-25.72,1.2-8.08,15.62-44.38,16.23-45.92a1,1,0,0,1,1.2-.52.92.92,0,0,1,.52,1.2c-.15.38-15,37.64-16.12,45.51-1.13,7.66,8.46,24.35,8.55,24.52a.92.92,0,0,1-.33,1.26A.89.89,0,0,1,2192.28,941.05Z" transform="translate(-133.81 -115.03)"/></g><path class="cls-34" d="M2290.64,822.79s3,21.32.5,21.75-25.56-1.69-25.56-1.69l13,15.15L2229,906.89s-19.14-56.86-18.29-58.13,15.63-9.08,15.63-9.08-17-2-17.43-3.3,9.08-10.41,9.08-10.41,13.57-10.41,15.89-8.64,2.19,57,2.19,57,36.88-62.22,39.36-62.62S2290.64,822.79,2290.64,822.79Z" transform="translate(-133.81 -115.03)"/><g class="cls-35"><path class="cls-36" d="M2142,966a.91.91,0,0,1-.91-.78c-.88-5.62-3.57-10.9-8.22-16.14a.92.92,0,0,1,.49-1.51,16.25,16.25,0,0,1,16.85,7.15.93.93,0,1,1-1.57,1,14.44,14.44,0,0,0-13.29-6.58,32.41,32.41,0,0,1,7.56,15.81.92.92,0,0,1-.77,1Z" transform="translate(-133.81 -115.03)"/></g><g class="cls-35"><path class="cls-36" d="M2353.56,980.43a.92.92,0,0,1-.67-.29c-3.91-4.12-9.11-6.95-15.91-8.64a.92.92,0,0,1-.45-1.53,16.24,16.24,0,0,1,17.93-3.65.94.94,0,0,1,.48,1.22.92.92,0,0,1-1.22.48,14.41,14.41,0,0,0-14.67,2.12,32.45,32.45,0,0,1,15.18,8.73.92.92,0,0,1,0,1.31A.9.9,0,0,1,2353.56,980.43Z" transform="translate(-133.81 -115.03)"/></g><g class="cls-35"><path class="cls-36" d="M2265.31,948.3a.93.93,0,0,1,0-1.85c12,0,26.21-7.6,29-21.52a.92.92,0,1,1,1.81.37c-3,14.87-18.11,23-30.81,23Z" transform="translate(-133.81 -115.03)"/></g><g class="cls-35"><path class="cls-36" d="M2232.83,1058.45a.94.94,0,0,1-.93-1c.06-1,6.22-98.53-2.22-114.54-6.62-12.58-1.84-35.27-1.63-36.23a.92.92,0,0,1,1.1-.71.94.94,0,0,1,.71,1.1c-.05.23-4.85,23,1.46,35,8.67,16.47,2.69,111.48,2.43,115.53A.93.93,0,0,1,2232.83,1058.45Z" transform="translate(-133.81 -115.03)"/></g><g class="cls-35"><path class="cls-36" d="M2293.21,1065.55a.91.91,0,0,1-.77-.41.93.93,0,0,1-.07-.9l24.12-52.24a.91.91,0,0,1,1.23-.45.92.92,0,0,1,.45,1.22l-23.5,50.88,27.7-1a.93.93,0,0,1,.06,1.85l-29.19,1Z" transform="translate(-133.81 -115.03)"/></g><g class="cls-35"><path class="cls-36" d="M2249.59,1211.84a.92.92,0,0,1-.83-.52,583.88,583.88,0,0,1-38.47-103.56.92.92,0,0,1,.65-1.13.89.89,0,0,1,1.13.65,582.52,582.52,0,0,0,38.35,103.23.91.91,0,0,1-.43,1.23A.85.85,0,0,1,2249.59,1211.84Z" transform="translate(-133.81 -115.03)"/></g><path class="cls-37" d="M2225,970.92a2.87,2.87,0,1,0,2.87-2.87A2.86,2.86,0,0,0,2225,970.92Z" transform="translate(-133.81 -115.03)"/><path class="cls-37" d="M2223.35,1002.83a2.87,2.87,0,1,0,2.87-2.86A2.87,2.87,0,0,0,2223.35,1002.83Z" transform="translate(-133.81 -115.03)"/><path class="cls-37" d="M2224.64,1038.78a2.87,2.87,0,1,0,2.87-2.87A2.86,2.86,0,0,0,2224.64,1038.78Z" transform="translate(-133.81 -115.03)"/><rect class="cls-38" x="1278.19" y="1149.89" width="296.05" height="227.45"/><rect class="cls-6" x="1278.19" y="1149.89" width="188.2" height="227.45"/><rect class="cls-7" x="1363.67" y="1149.89" width="17.24" height="227.45"/><rect class="cls-8" x="1371.3" y="1149.89" width="1.97" height="227.45"/><rect class="cls-7" x="1514.24" y="1149.89" width="17.24" height="227.45"/><rect class="cls-7" x="1396.31" y="1327.73" width="57.25" height="35.04"/><rect class="cls-8" x="1521.87" y="1149.89" width="1.97" height="227.45"/><rect class="cls-38" x="1164.11" y="1283.47" width="149.59" height="93.98"/><rect class="cls-6" x="1164.11" y="1283.47" width="95.09" height="93.98"/><rect class="cls-7" x="1207.3" y="1283.47" width="8.71" height="93.98"/><rect class="cls-8" x="1211.16" y="1283.47" width="1" height="93.98"/><rect class="cls-7" x="1283.38" y="1283.47" width="8.71" height="93.98"/><rect class="cls-7" x="1223.79" y="1356.96" width="28.93" height="14.48"/><rect class="cls-8" x="1287.23" y="1283.47" width="1" height="93.98"/><rect class="cls-39" x="1507.8" y="946.68" width="1238.8" height="433.21"/><rect class="cls-15" x="1674.85" y="110.7" width="730.37" height="200.88"/><rect class="cls-14" x="1674.85" y="110.7" width="710.63" height="200.88"/><polygon class="cls-40" points="2389.65 1301.06 1519.21 1155.3 1519.21 989.05 2389.65 989.05 2389.65 1301.06"/><rect class="cls-15" x="2406.97" y="961.03" width="339.63" height="418.85"/><rect class="cls-41" x="1501.55" y="953.75" width="1252.34" height="16.92"/><rect class="cls-42" x="1501.55" y="946.68" width="1252.34" height="16.92"/><rect class="cls-38" x="2306.86" y="1199.06" width="304.95" height="191.6"/><rect class="cls-6" x="2306.86" y="1199.06" width="193.86" height="191.6"/><rect class="cls-7" x="2394.91" y="1199.06" width="17.75" height="191.6"/><rect class="cls-8" x="2402.77" y="1199.06" width="2.03" height="191.6"/><rect class="cls-43" x="2550.01" y="1199.06" width="17.75" height="191.6"/><rect class="cls-7" x="2428.53" y="1348.87" width="58.97" height="29.51"/><rect class="cls-8" x="2557.87" y="1199.06" width="2.03" height="191.6"/><rect class="cls-38" x="1835.55" y="837.98" width="170.34" height="107.02"/><rect class="cls-6" x="1835.55" y="837.98" width="108.29" height="107.02"/><polygon class="cls-44" points="1889.69 837.71 1882.98 837.71 1882.98 900.46 1889.69 891.77 1896.41 900.46 1896.41 837.71 1889.69 837.71"/><rect class="cls-7" x="1908.07" y="851.99" width="26.21" height="17.28"/><path class="cls-45" d="M2103.82,1058.41h-23.14v-22.32h23.14Zm-22.64-.5h22.14v-21.32h-22.14Z" transform="translate(-133.81 -115.03)"/><path class="cls-45" d="M2129.1,1058.41H2106v-22.32h23.14Zm-22.63-.5h22.13v-21.32h-22.13Z" transform="translate(-133.81 -115.03)"/><path class="cls-45" d="M2101.66,1045.6a9.67,9.67,0,0,0-9-6.86c-.05,0-.18-.38-.31-.38s-.24.36-.29.38a9.67,9.67,0,0,0-9,6.86l-.08.31a8.09,8.09,0,0,1,5.65.36,9.89,9.89,0,0,1,2.84-.88l.47-.05c.14,0,.14,9.85.14,9.85,0,.77.47,1.39,1.05,1.39a1.25,1.25,0,0,0,1.06-1.39v-1.11h-.62v1.11c0,.34-.19.62-.44.62s-.44-.28-.44-.62v-9.85a8.09,8.09,0,0,1,3.34.93,8.45,8.45,0,0,1,5.5-.46C2101.74,1045.91,2101.66,1045.6,2101.66,1045.6Z" transform="translate(-133.81 -115.03)"/><path class="cls-45" d="M2117.53,1049.66a3.88,3.88,0,0,1-3.87-3.88v-7.27h7.75v7.27A3.88,3.88,0,0,1,2117.53,1049.66Z" transform="translate(-133.81 -115.03)"/><path class="cls-45" d="M2121.25,1056.58c-.31-1.08-1.85-1.9-3.72-1.9s-3.4.82-3.71,1.9Z" transform="translate(-133.81 -115.03)"/><rect class="cls-45" x="1983.25" y="932.96" width="0.95" height="7.22"/><rect class="cls-38" x="2082.44" y="1227.16" width="260.23" height="163.5"/><rect class="cls-6" x="2082.44" y="1227.16" width="165.43" height="163.5"/><polygon class="cls-44" points="2165.15 1226.74 2154.9 1226.74 2154.9 1322.6 2165.15 1309.33 2175.41 1322.6 2175.41 1226.74 2165.15 1226.74"/><rect class="cls-7" x="2193.22" y="1248.57" width="40.04" height="26.39"/><path class="cls-45" d="M2421.66,1503.21H2386.3v-34.1h35.36Zm-34.59-.77h33.82v-32.56h-33.82Z" transform="translate(-133.81 -115.03)"/><path class="cls-45" d="M2460.28,1503.21h-35.36v-34.1h35.36Zm-34.59-.77h33.82v-32.56h-33.82Z" transform="translate(-133.81 -115.03)"/><path class="cls-45" d="M2418.36,1483.64c0-.1-2.84-10.21-13.8-10.49-.07,0-.27-.58-.48-.58s-.36.56-.44.58c-11,.28-13.76,10.39-13.79,10.49l-.12.46.41-.14a12.14,12.14,0,0,1,8.21.71,15,15,0,0,1,4.35-1.36l.71-.07c.21,0,.21,15,.21,15a1.68,1.68,0,1,0,3.23,0v-1.7h-.94v1.7c0,.52-.3,1-.67,1s-.68-.43-.68-1v-15.06a12.25,12.25,0,0,1,5.1,1.44,12.83,12.83,0,0,1,8.41-.71l.41.14Z" transform="translate(-133.81 -115.03)"/><path class="cls-45" d="M2442.6,1489.84a5.92,5.92,0,0,1-5.91-5.92V1472.8h11.83v11.12A5.92,5.92,0,0,1,2442.6,1489.84Z" transform="translate(-133.81 -115.03)"/><path class="cls-45" d="M2448.28,1500.41c-.47-1.65-2.82-2.91-5.68-2.91s-5.2,1.26-5.68,2.91Z" transform="translate(-133.81 -115.03)"/><rect class="cls-45" x="2308.07" y="1372.26" width="1.45" height="11.04"/><rect class="cls-38" x="2578.56" y="869.15" width="153.84" height="96.65" transform="translate(-122.65 -146.73) rotate(0.69)"/><rect class="cls-6" x="2578.56" y="868.82" width="97.79" height="96.65" transform="translate(-122.65 -146.4) rotate(0.69)"/><polygon class="cls-44" points="2494.22 753.55 2488.16 753.47 2487.49 810.14 2493.64 802.36 2499.61 810.28 2500.29 753.62 2494.22 753.55"/><rect class="cls-7" x="2644.38" y="881.81" width="23.67" height="15.6" transform="translate(-122.99 -146.71) rotate(0.68)"/><path class="cls-45" d="M2699.42,964.88l-20.9-.25c0-.23.24-20.17.24-20.17l20.91.25C2699.66,944.94,2699.42,964.88,2699.42,964.88Zm-20.43-.71,20,.24.23-19.25-20-.24Z" transform="translate(-133.81 -115.03)"/><path class="cls-45" d="M2722.26,965.15l-20.9-.25c0-.23.23-20.17.23-20.17l20.9.26C2722.49,945.21,2722.26,965.15,2722.26,965.15Zm-20.44-.71,20,.24.23-19.24-20-.24Z" transform="translate(-133.81 -115.03)"/><path class="cls-45" d="M2697.61,953.28a8.75,8.75,0,0,0-8.08-6.3c-.05,0-.16-.34-.28-.34s-.22.32-.27.34a8.71,8.71,0,0,0-8.22,6.1,8.91,8.91,0,0,1,5,.67,8.54,8.54,0,0,1,2.57-.77l.43,0c.12,0,0,8.9,0,8.9a1.13,1.13,0,0,0,.94,1.26c.52,0,1-.55,1-1.24v-1h-.56v1c0,.31-.19.56-.41.56s-.39-.26-.39-.57l.11-8.9a7.28,7.28,0,0,1,3,.89,7.53,7.53,0,0,1,5-.36C2697.68,953.56,2697.61,953.28,2697.61,953.28Z" transform="translate(-133.81 -115.03)"/><path class="cls-45" d="M2711.9,957.12a3.51,3.51,0,0,1-3.46-3.55l.08-6.57,7,.09-.08,6.57A3.5,3.5,0,0,1,2711.9,957.12Z" transform="translate(-133.81 -115.03)"/><path class="cls-45" d="M2715.18,963.4c-.27-1-1.65-1.73-3.34-1.75s-3.08.7-3.37,1.67Z" transform="translate(-133.81 -115.03)"/><rect class="cls-45" x="2711.45" y="955.61" width="0.85" height="6.52" transform="translate(-122.41 -146.7) rotate(0.67)"/><rect class="cls-46" x="2668.62" y="549.9" width="187.52" height="55.85"/><rect class="cls-14" x="2668.62" y="549.9" width="127.51" height="55.85"/><rect class="cls-46" x="3050.48" y="750.9" width="134.68" height="50.01"/><rect class="cls-14" x="3050.48" y="750.9" width="91.58" height="50.01"/><rect class="cls-46" x="2403.25" y="472.08" width="183.2" height="133.56"/><rect class="cls-14" x="2403.25" y="472.08" width="143.21" height="133.56"/><rect class="cls-47" x="2460.26" y="562.06" width="77.79" height="28.98"/><rect class="cls-14" x="2679.68" y="689.74" width="210.34" height="111.51"/><rect class="cls-46" x="2800.85" y="689.74" width="89.16" height="111.51"/><rect class="cls-14" x="2863.35" y="336.67" width="210.34" height="73.67"/><rect class="cls-47" x="2937.26" y="374.67" width="38.9" height="28.98"/><rect class="cls-46" x="2984.52" y="336.67" width="89.16" height="73.67"/><rect class="cls-14" x="2784.75" y="895.12" width="179.81" height="101.05"/><rect class="cls-46" x="2888.34" y="895.12" width="76.22" height="101.05"/><path class="cls-26" d="M2134.59,938.37c1.61,0,5.3,5.51,5.3,5.51L2133,956.25l-7.49-5.82S2133,938.32,2134.59,938.37Z" transform="translate(-133.81 -115.03)"/><path class="cls-48" d="M1860.62,1507.06l79,.53s-3.88-10.73-10.33-13.5-67.28-9.5-67.28-9.5Z" transform="translate(-133.81 -115.03)"/><path class="cls-48" d="M1736.27,1506.08l80.11.53s-3.93-10.73-10.47-13.49-67.5-9.39-67.5-9.39Z" transform="translate(-133.81 -115.03)"/><path class="cls-49" d="M1796.87,1065h146c-19.21,154.59-32.21,298.6-37.22,429l-42.52,8.64c-8.11-60.32-6.81-176.45-6.81-176.45l-4-142.6c-17.11,123.39-57.39,208.13-63.9,307.09l-54.1,10.06c3.81-70.15,22-139.19,38.14-196.29Z" transform="translate(-133.81 -115.03)"/><g class="cls-50"><path class="cls-51" d="M1891.13,1491.43a.82.82,0,0,1-.81-.82c.6-91.06,7-230,17-371.8,0-.45.45-.86.86-.75a.79.79,0,0,1,.75.86c-10,141.72-16.39,280.67-17,371.71A.8.8,0,0,1,1891.13,1491.43Z" transform="translate(-133.81 -115.03)"/></g><g class="cls-50"><path class="cls-51" d="M1851.56,1182.14a.82.82,0,0,1-.62-.3l-18.26-21.9a.81.81,0,0,1,.1-1.14.8.8,0,0,1,1.14.1l18.27,21.9a.82.82,0,0,1-.11,1.15A.78.78,0,0,1,1851.56,1182.14Z" transform="translate(-133.81 -115.03)"/></g><g class="cls-50"><path class="cls-51" d="M1905.39,1166.64a.81.81,0,0,1-.41-1.52c.13-.07,12.36-7.1,15.81-12.41,7.21-11.09,8.56-45.73,8.57-46.08a.81.81,0,0,1,1.62.06c0,1.45-1.38,35.45-8.83,46.9-3.66,5.65-15.85,12.65-16.36,12.94A.86.86,0,0,1,1905.39,1166.64Z" transform="translate(-133.81 -115.03)"/></g><path class="cls-26" d="M1766.2,886.38,1798.72,934c0,1-11,41.58-11,41.58l45.71,13.94,1.79,28.72s-82-4.66-87.37-13.76C1739.12,989.66,1766.2,886.38,1766.2,886.38Z" transform="translate(-133.81 -115.03)"/><path class="cls-26" d="M2092.11,963.55l9.37,19.16s-95.49,46.59-112.21,42.81-60.56-101.78-60.56-101.78l-1-61.47,37.76,18,39.75,88Z" transform="translate(-133.81 -115.03)"/><path class="cls-11" d="M2005.89,961.41c.62,2.37-43.25,35.73-46.87,35.35-4.65-.49-58.27-100.26-61.59-112s5.81-67.89,5.81-67.89,42.36,13.57,52.33,22.63S2005.26,959,2005.89,961.41Z" transform="translate(-133.81 -115.03)"/><path class="cls-11" d="M1743.33,978.63c3.3,4.87,53.39-.39,53.39-.39s23.56-94.46,26.89-106.23,17.19-72.35,17.19-72.35-40.66,8.44-50.43,17.7C1776.33,830.67,1739,972.19,1743.33,978.63Z" transform="translate(-133.81 -115.03)"/><path class="cls-11" d="M1795.45,828.43l46-26.17c30.86,3.85,63.13,9,93.45,32.08l10.62,286.11-22-3.94c-47.63,17.48-106,10.93-133.79-33.16,0,0,22.28-73.94,23.12-98.43C1810.07,963.08,1795.45,828.43,1795.45,828.43Z" transform="translate(-133.81 -115.03)"/><polygon class="cls-26" points="1765.71 698.6 1772.21 643.25 1730.53 628.1 1710.72 684.56 1765.71 698.6"/><path class="cls-26" d="M1930.93,687.26s6.15,65.92-3.13,80.51-52.74,11.56-57.71,5.42-7.13-92.78-7.13-92.78Z" transform="translate(-133.81 -115.03)"/><path class="cls-52" d="M1859.33,658c24.11-16.43,59-7.3,70.5-1.67s13.09,18.48,7.63,30.35c-4.7,10.21-13.56,9.57-13.84,13.82a81.31,81.31,0,0,1-2.22,14.39s-5.75,8.25-9.31,11.89c-7.2,7.34-21.68,40-20.75,41.36l-31.45-8s1.14-14.72-7-34.31C1845.6,708.37,1837.9,672.63,1859.33,658Z" transform="translate(-133.81 -115.03)"/><path class="cls-26" d="M1921.6,722s-15.55-22.91-22.25-11.22,8.56,36.33,8.56,36.33Z" transform="translate(-133.81 -115.03)"/><path class="cls-11" d="M1900.14,820.65c.44-1.32,7.89-14.46,6.57-15.78s-60.9-14.45-60.9-14.45l-8.32,12.7Z" transform="translate(-133.81 -115.03)"/><g class="cls-35"><path class="cls-53" d="M1940.14,967.74a.83.83,0,0,1-.74-.48l-30.52-66.43a.81.81,0,0,1,.4-1.08.84.84,0,0,1,1.08.41l30.52,66.43a.82.82,0,0,1-.4,1.08A1,1,0,0,1,1940.14,967.74Z" transform="translate(-133.81 -115.03)"/></g><g class="cls-35"><path class="cls-53" d="M1894.29,817c-.21,0-53.08-14-53.08-14a.81.81,0,1,1,.42-1.57l52.87,13.93a.81.81,0,0,1-.21,1.59Z" transform="translate(-133.81 -115.03)"/></g><g class="cls-35"><path class="cls-53" d="M1805.39,937.15a.82.82,0,0,1-.79-.6l-11.36-43a.81.81,0,0,1,.58-1,.8.8,0,0,1,1,.57l11.37,43a.81.81,0,0,1-.58,1Z" transform="translate(-133.81 -115.03)"/></g><path class="cls-26" d="M2139.89,943.88s-2.82,32.62-6.29,33.39-26.09,3-27.24,3.37-6,2.38-6,2.38l-17-18.58,25.21-12.83Z" transform="translate(-133.81 -115.03)"/><path class="cls-26" d="M2119.5,953.47a35.75,35.75,0,0,1,2.24-9.53c1.48-3.82,6-8.78,6.51-10.71,1-3.8-3.89-9-5.62-6.57s-23.81,30.78-23.81,30.78Z" transform="translate(-133.81 -115.03)"/><rect class="cls-54" x="2695.21" y="1019.24" width="99.04" height="37.05" transform="translate(5355.65 1960.5) rotate(180)"/><rect class="cls-54" x="2421.02" y="1050.47" width="10.94" height="13" transform="translate(3349.64 -1484.54) rotate(90)"/><rect class="cls-54" x="2680.37" y="1050.47" width="10.94" height="13" transform="translate(3609 -1743.9) rotate(90)"/><rect class="cls-54" x="2513" y="1050.47" width="10.94" height="13" transform="translate(3441.63 -1576.53) rotate(90)"/><rect class="cls-54" x="2772.36" y="1050.47" width="10.94" height="13" transform="translate(3700.98 -1835.88) rotate(90)"/><rect class="cls-55" x="2406.11" y="939.02" width="133.49" height="14.75" transform="translate(1392.65 3304.22) rotate(-90)"/><rect class="cls-55" x="2455.77" y="886.12" width="34.17" height="21.23" transform="translate(1442.3 3254.56) rotate(-90)"/><rect class="cls-56" x="2275.83" y="904.21" width="293.03" height="37.05"/><rect class="cls-56" x="2390.28" y="855.26" width="145.92" height="37.05"/><rect class="cls-54" x="2670.01" y="970.28" width="83.18" height="37.05" transform="translate(5289.4 1862.59) rotate(180)"/><rect class="cls-57" x="2266.32" y="888.93" width="312.07" height="37.05"/><rect class="cls-54" x="2712.2" y="1003.96" width="89.35" height="37.05" transform="translate(5379.93 1929.94) rotate(180)"/><rect class="cls-42" x="2278.45" y="716.56" width="128.23" height="70.23"/><rect class="cls-14" x="2278.45" y="716.56" width="122.13" height="70.23"/><path class="cls-58" d="M2532,833.94v65.52H2414.62V833.94Zm2.36-2.35H2412.26v70.22h122.13V831.59Z" transform="translate(-133.81 -115.03)"/><rect class="cls-11" x="2288.4" y="725.33" width="102.22" height="52.69"/><rect class="cls-14" x="2365.34" y="851.35" width="195.79" height="22.97"/><rect class="cls-59" x="2694.95" y="966.38" width="70.87" height="22.97" transform="translate(5326.96 1840.7) rotate(180)"/><rect class="cls-58" x="2365.34" y="850.17" width="266.66" height="2.36"/><path class="cls-60" d="M2921.25,874.43v24.08h-45.69V874.43Zm2.36-2.36H2873.2v28.8h50.41v-28.8Z" transform="translate(-133.81 -115.03)"/><rect class="cls-60" x="2384.3" y="110.7" width="2.36" height="200.88"/><rect class="cls-61" x="2307.08" y="1198.74" width="154.87" height="6.88"/><rect class="cls-38" x="2288.07" y="1063.46" width="216.45" height="135.99"/><rect class="cls-6" x="2288.07" y="1063.46" width="137.59" height="135.99"/><polygon class="cls-44" points="2356.87 1063.11 2348.34 1063.11 2348.34 1142.85 2356.87 1131.8 2365.4 1142.85 2365.4 1063.11 2356.87 1063.11"/><rect class="cls-7" x="2380.22" y="1081.27" width="33.3" height="21.95"/><path class="cls-45" d="M2592.74,1312.42h-29.42v-28.37h29.42Zm-28.77-.64h28.12V1284.7H2564Z" transform="translate(-133.81 -115.03)"/><path class="cls-45" d="M2624.87,1312.42h-29.42v-28.37h29.42Zm-28.77-.64h28.12V1284.7H2596.1Z" transform="translate(-133.81 -115.03)"/><path class="cls-45" d="M2590,1296.14c0-.08-2.36-8.49-11.47-8.72-.07,0-.23-.48-.41-.48s-.3.46-.36.48c-9.12.23-11.45,8.64-11.47,8.72l-.11.39.35-.12a10.13,10.13,0,0,1,6.83.59,12.44,12.44,0,0,1,3.61-1.13l.6-.06c.17,0,.17,12.52.17,12.52a1.39,1.39,0,1,0,2.69,0v-1.41h-.78v1.41c0,.43-.26.79-.56.79s-.56-.36-.56-.79v-12.52a10.13,10.13,0,0,1,4.24,1.19,10.67,10.67,0,0,1,7-.59l.34.12Z" transform="translate(-133.81 -115.03)"/><path class="cls-45" d="M2610.16,1301.3a4.93,4.93,0,0,1-4.93-4.93v-9.24h9.85v9.24A4.93,4.93,0,0,1,2610.16,1301.3Z" transform="translate(-133.81 -115.03)"/><path class="cls-45" d="M2614.88,1310.09c-.39-1.37-2.35-2.42-4.72-2.42s-4.34,1-4.73,2.42Z" transform="translate(-133.81 -115.03)"/><rect class="cls-45" x="2475.74" y="1184.15" width="1.2" height="9.18"/><circle class="cls-4" cx="1307.82" cy="709.85" r="98.43" transform="translate(182.67 1704.56) rotate(-76.72)"/><circle class="cls-60" cx="1307.82" cy="709.85" r="87" transform="translate(-305.91 439.49) rotate(-22.5)"/><circle class="cls-60" cx="1174" cy="594.82" r="81.69"/><path class="cls-14" d="M1237.31,711.41a4.91,4.91,0,1,1-4.91-4.91A4.91,4.91,0,0,1,1237.31,711.41Z" transform="translate(-133.81 -115.03)"/><path class="cls-14" d="M1246,676a4.91,4.91,0,1,1-1.8-6.71A4.91,4.91,0,0,1,1246,676Z" transform="translate(-133.81 -115.03)"/><path class="cls-14" d="M1271.21,649.57a4.91,4.91,0,1,1,1.8-6.71A4.91,4.91,0,0,1,1271.21,649.57Z" transform="translate(-133.81 -115.03)"/><path class="cls-14" d="M1306.25,639.34a4.91,4.91,0,1,1,4.92-4.91A4.91,4.91,0,0,1,1306.25,639.34Z" transform="translate(-133.81 -115.03)"/><path class="cls-14" d="M1341.71,648a4.91,4.91,0,1,1,6.72-1.8A4.92,4.92,0,0,1,1341.71,648Z" transform="translate(-133.81 -115.03)"/><path class="cls-14" d="M1368.09,673.24a4.91,4.91,0,1,1,6.71,1.8A4.92,4.92,0,0,1,1368.09,673.24Z" transform="translate(-133.81 -115.03)"/><path class="cls-14" d="M1378.32,708.28a4.92,4.92,0,1,1,4.92,4.92A4.91,4.91,0,0,1,1378.32,708.28Z" transform="translate(-133.81 -115.03)"/><path class="cls-14" d="M1369.66,743.75a4.91,4.91,0,1,1,1.8,6.71A4.91,4.91,0,0,1,1369.66,743.75Z" transform="translate(-133.81 -115.03)"/><path class="cls-14" d="M1344.43,770.13a4.91,4.91,0,1,1-1.8,6.71A4.91,4.91,0,0,1,1344.43,770.13Z" transform="translate(-133.81 -115.03)"/><path class="cls-14" d="M1309.38,780.35a4.92,4.92,0,1,1-4.91,4.92A4.92,4.92,0,0,1,1309.38,780.35Z" transform="translate(-133.81 -115.03)"/><path class="cls-14" d="M1273.92,771.69a4.91,4.91,0,1,1-6.71,1.8A4.91,4.91,0,0,1,1273.92,771.69Z" transform="translate(-133.81 -115.03)"/><path class="cls-14" d="M1247.54,746.46a4.91,4.91,0,1,1-6.71-1.8A4.91,4.91,0,0,1,1247.54,746.46Z" transform="translate(-133.81 -115.03)"/><path class="cls-14" d="M1237.31,711.41a4.91,4.91,0,1,1-4.91-4.91A4.91,4.91,0,0,1,1237.31,711.41Z" transform="translate(-133.81 -115.03)"/><polygon class="cls-62" points="1210.86 645.98 1169.23 595.22 1205.17 522.78 1212.08 526.25 1178.39 594.19 1216.84 641.09 1210.86 645.98"/><path class="cls-14" d="M1313.82,709.85a6,6,0,1,1-6-6A6,6,0,0,1,1313.82,709.85Z" transform="translate(-133.81 -115.03)"/><path class="cls-63" d="M380.21,1481.53c1.79-2.24,4.33-5,6.82-6,3.44-1.51,29.94-4,34.11-6.77s5.42-4.59,5.42-4.59c11.52,7.9,25.68,3.68,27,4.79s3.15,16.73.49,28.13l-74.38-11.83Z" transform="translate(-133.81 -115.03)"/><path class="cls-11" d="M380.21,1481.54l.7-.86,73.95,11.76c-.2,1.44-.47,3-.85,4.6l-74.38-11.83Z" transform="translate(-133.81 -115.03)"/><path class="cls-57" d="M418,1467.12C455.55,1306,481.67,1150,505.76,1002L587,1066.24,460.25,1476Z" transform="translate(-133.81 -115.03)"/><path class="cls-63" d="M711.82,1491.6c0-2.87.28-6.59,1.55-9,1.75-3.32,20.87-21.84,22.43-26.58s1.37-7,1.37-7c13.92-1,22.35-13.14,24-13.08s12.91,11.11,17.95,21.68l-65.5,37.18Z" transform="translate(-133.81 -115.03)"/><path class="cls-11" d="M711.82,1491.6c0-.35,0-.72,0-1.1l65.13-37c.74,1.25,1.47,2.61,2.2,4.13l-65.5,37.18Z" transform="translate(-133.81 -115.03)"/><path class="cls-57" d="M514.72,1045s91.54,207,101.92,226.8c9,17.25,111.46,189.51,111.46,189.51l42.29-23.44s-99.06-216.57-106.66-227.13c-3.4-4.73-50.57-179.2-50.57-179.2Z" transform="translate(-133.81 -115.03)"/><path class="cls-57" d="M615.69,1056.79c.71-3.21.82-42.95-4.29-55.56s-24.67-38.84-24.67-38.84-81.87-.14-87,5.7,15,76.9,15,76.9Z" transform="translate(-133.81 -115.03)"/><path class="cls-64" d="M505.71,669.79s-22.14,3-34.48,11S495.1,827.61,495.1,827.61l60.56-8-2.11-110.2Z" transform="translate(-133.81 -115.03)"/><path class="cls-25" d="M522.42,802s-14.3,5.87-20.63,8.67c-7.39,3.28-37.45,22.56-37.45,22.56l30.1,36.94L515.8,846.9Z" transform="translate(-133.81 -115.03)"/><path class="cls-26" d="M530.33,791.81c2-4.32-4.61-21.27-4.61-21.27l24-29.35s10.76,32.91,16.11,39.13,31.47,18.33,31.47,18.33c-32.86,18.24-62.44,26.89-84.34,13.05C512.92,811.7,528.32,796.13,530.33,791.81Z" transform="translate(-133.81 -115.03)"/><path class="cls-27" d="M541.71,750.51l7.86,5.9c-.09,16.23-11.16,25-19.11,30-2.25-12.54-8-25.59-8-25.59Z" transform="translate(-133.81 -115.03)"/><path class="cls-26" d="M501.93,688.74c10.74-7.41,45.88-16.63,52.72.58,11.28,28.38,4.21,38.49-1.72,51.36.75,19.74-24.79,50.77-40.63,42.84-7.07-3.54-18-21.37-20.1-40.39-1.72-15.85-6.5-23-6.58-31C485.54,702.57,490.78,696.43,501.93,688.74Z" transform="translate(-133.81 -115.03)"/><path class="cls-64" d="M587.82,829.68s-11.31-20.13-19.53-25-18.94-52.88-26.15-59.95-30.3-30-36.7-38.75c-6-8.3-16.89-29.58-16.89-29.58a69.19,69.19,0,0,1,27.56-15.83c22.07-6.26,52.39-7.92,60.46,1.41,14.06,16.24,26.34,75.15,40.63,98.65,14.07,23.14,67.79,54.41,71,76.12,3.51,23.49-24.69,50.44-44.08,56.85S587.82,829.68,587.82,829.68Z" transform="translate(-133.81 -115.03)"/><path class="cls-25" d="M609.61,805.66c4.65,5.58-8.42,135-18.47,152.34-22.63,8.28-51.54,9.26-77.58,2.52,0,0-32.33-67.52-30.36-74.85s24.42-73.29,24.42-73.29l14.8-10.4c15.05,22.66,34.54,14.23,56.64-12.38Z" transform="translate(-133.81 -115.03)"/><g class="cls-35"><path class="cls-65" d="M496.47,847a1.1,1.1,0,0,1-.4-.08,1.06,1.06,0,0,1-.58-1.38l6-14.78a1,1,0,0,1,1.38-.58,1.06,1.06,0,0,1,.58,1.38l-6,14.78A1.07,1.07,0,0,1,496.47,847Z" transform="translate(-133.81 -115.03)"/></g><rect class="cls-38" x="376.96" y="911.03" width="177" height="111.21" transform="translate(-147.23 -108.45) rotate(-0.8)"/><rect class="cls-6" x="376.96" y="911.48" width="112.52" height="111.21" transform="translate(-147.24 -108.9) rotate(-0.8)"/><polygon class="cls-44" points="298.63 796.17 291.66 796.27 292.57 861.47 299.41 852.34 306.51 861.27 305.61 796.07 298.63 796.17"/><rect class="cls-7" x="451.87" y="925.59" width="27.23" height="17.95" transform="translate(-146.76 -108.46) rotate(-0.8)"/><path class="cls-45" d="M493.37,1020.18c0-.26-.32-23.2-.32-23.2l24.05-.34c0,.26.32,23.2.32,23.2Zm.21-22.69.31,22.15,23-.32-.31-22.14Z" transform="translate(-133.81 -115.03)"/><path class="cls-45" d="M519.64,1019.81c0-.26-.32-23.2-.32-23.2l24-.33c0,.26.32,23.19.32,23.19Zm.21-22.68.31,22.14,23-.31-.31-22.15Z" transform="translate(-133.81 -115.03)"/><path class="cls-45" d="M515,1006.56a10,10,0,0,0-9.48-7c-.05,0-.19-.4-.33-.4s-.25.39-.3.4c-7.45.3-9.26,7.2-9.28,7.27l-.08.31a8.45,8.45,0,0,1,5.87.3,10.54,10.54,0,0,1,2.95-1l.48-.05c.14,0,.29,10.23.29,10.23a1.14,1.14,0,1,0,2.2,0l0-1.15h-.64v1.16c0,.36-.19.65-.44.65s-.47-.28-.47-.64l-.14-10.24a8.42,8.42,0,0,1,3.48.93,8.75,8.75,0,0,1,5.71-.56C515.08,1006.87,515,1006.56,515,1006.56Z" transform="translate(-133.81 -115.03)"/><path class="cls-45" d="M531.54,1010.54a4,4,0,0,1-4.08-4l-.11-7.56,8-.11.11,7.56A4,4,0,0,1,531.54,1010.54Z" transform="translate(-133.81 -115.03)"/><path class="cls-45" d="M535.5,1017.68c-.33-1.12-2-1.95-3.89-1.92s-3.53.9-3.83,2Z" transform="translate(-133.81 -115.03)"/><rect class="cls-45" x="531.08" y="1008.81" width="0.98" height="7.51" transform="translate(-147.88 -107.52) rotate(-0.8)"/><path class="cls-26" d="M646.41,900.92S659,964.27,653.88,970s-150.38,41.61-150.38,41.61l-7.34-16.31L612.83,947.8l-6.72-40Z" transform="translate(-133.81 -115.03)"/><path class="cls-25" d="M662.9,915.14s-30.32-88.57-34.55-93.68-18.74-15.8-18.74-15.8L582.13,833.8l25.34,94.08Z" transform="translate(-133.81 -115.03)"/><g class="cls-35"><path class="cls-65" d="M607.89,917a1.05,1.05,0,0,1-.24-2.08l47.81-11.41a1,1,0,0,1,1.27.79,1.06,1.06,0,0,1-.78,1.27L608.13,917A.66.66,0,0,1,607.89,917Z" transform="translate(-133.81 -115.03)"/></g><g class="cls-35"><path class="cls-65" d="M599.18,895.38a1.05,1.05,0,0,1-1-.73l-14.51-43.26a1.06,1.06,0,1,1,2-.67L600.18,894a1,1,0,0,1-.67,1.34A1,1,0,0,1,599.18,895.38Z" transform="translate(-133.81 -115.03)"/></g><path class="cls-64" d="M589.33,773.86c.5,1,19.34,61.19,1.74,64.63s-34.36-61.09-34.36-61.09Z" transform="translate(-133.81 -115.03)"/><path class="cls-26" d="M518.57,1004.89s-17.9,8.8-20.52,9-16.51,1-17.49,1-4.28,0-6.41.24-7.89.51-9.58.69c-1.31.15-10.59,1.53-11.63.82-1.78-1.21-1.31-3.23.1-3.69,3.28-1.06,13.92-2.17,15.78-2.23s8-1.06,8-1.44-2.84-.81-5.91-.67-20.13,1.66-21.89,1c-2.12-.85-1.4-3.28-.27-4s5.86-1.15,7.32-1.2c1.75-.06,7.84-.53,9.4-.63s10.53,0,10.39-.59-5.6-1-12.14-1.08c-.78,0-7-.48-9.07-.57s-7.7-.51-8.46-.84a2.65,2.65,0,0,1,0-4.69c1.21-.51,7.37-.12,9.74-.08,2.57,0,6.28.48,8.32.38,2.39-.12,11.61,1.07,11.49.23s-7.34-2.07-12.61-2.94c-2.12-.34-11.73-2.24-12.52-2.67a2.41,2.41,0,0,1,.32-4.53c1.21-.4,8.29.55,10.43.9,5.72.94,12.94,1.68,14.74,1.83s9.81,0,10.13-.69-2.95-4.23-3.63-4.8-2.36-3.8-3-5.45c-1.7-4.14-1.59-8.08.46-8.16,1.64-.07,4.32,5.38,5.88,7s4.68,5,5.65,5.39a48.82,48.82,0,0,1,7.07,3.91c1,.79,4.3,5.33,5.51,6s14.57-1.93,14.57-1.93Z" transform="translate(-133.81 -115.03)"/><g class="cls-50"><path class="cls-36" d="M743.18,1436.92a1,1,0,0,1-.86-.51c-1-2-104.63-195.52-108.48-203.34-3.29-6.67-76-211.43-79.11-220.14a1,1,0,1,1,1.82-.65c.76,2.13,75.79,213.37,79,219.94C639.42,1240,743,1433.55,744,1435.5a1,1,0,0,1-.4,1.31A1,1,0,0,1,743.18,1436.92Z" transform="translate(-133.81 -115.03)"/></g><g class="cls-50"><path class="cls-36" d="M726.19,1450.2a1,1,0,0,1-.5-1.79c5.31-3.22,31.93-19.33,33.42-19.87a1,1,0,0,1,1.24.58,1,1,0,0,1-.58,1.24c-1.29.53-20.48,12.07-33.08,19.7A.93.93,0,0,1,726.19,1450.2Z" transform="translate(-133.81 -115.03)"/></g><g class="cls-50"><path class="cls-36" d="M460.72,1466.45c-.22,0-38.18-8.59-38.18-8.59A1,1,0,1,1,423,1456l38,8.56a1,1,0,0,1-.21,1.91Z" transform="translate(-133.81 -115.03)"/></g><g class="cls-35"><path class="cls-36" d="M558,1148.52a1,1,0,0,1-.91-.63l-41.11-110.15a1,1,0,1,1,1.82-.68l41.1,110.16a1,1,0,0,1-.56,1.24A1.06,1.06,0,0,1,558,1148.52Z" transform="translate(-133.81 -115.03)"/></g><path class="cls-66" d="M454.49,1017.39a3.71,3.71,0,0,1-1.85-.29,2.83,2.83,0,0,1-1.36-2.72,2.32,2.32,0,0,1,1.59-1.9c3.36-1.09,14-2.21,15.94-2.27a52.1,52.1,0,0,0,6.29-.9,25.3,25.3,0,0,0-4.12-.15c-.72,0-2.31.15-4.3.3-8.64.63-16.49,1.15-17.82.61a2.46,2.46,0,0,1-1.67-2.11,3.18,3.18,0,0,1,1.31-2.85c1.57-1.05,7.34-1.28,7.59-1.29,1.18,0,4.42-.27,6.78-.44,1.14-.09,2.11-.15,2.61-.18s1.41-.05,2.61-.06c1.38,0,3.66,0,5.36-.12-1.84-.21-5-.4-9.69-.44-.4,0-2.05-.11-3.95-.25s-4.07-.28-5.14-.33-7.65-.44-8.65-.88a3.17,3.17,0,0,1,.05-5.66c1-.41,4-.33,7.85-.19.83,0,1.57.06,2.11.06,1.11,0,2.44.12,3.72.21,1.68.11,3.44.22,4.56.18.91,0,2.79.09,4.76.24,1.65.13,3.88.29,5.25.3-2.56-.79-8.85-1.81-11.19-2.2-1.59-.25-11.74-2.21-12.68-2.72a3.08,3.08,0,0,1-1.7-3,3,3,0,0,1,2.1-2.53c1.59-.52,10.6.86,10.69.87,5.57.91,12.72,1.65,14.69,1.82a51.51,51.51,0,0,0,9.53-.44,22,22,0,0,0-3.42-4.12c-.79-.68-2.54-4.09-3.18-5.65-1.35-3.27-1.61-6.47-.65-8a1.93,1.93,0,0,1,1.58-.93c1.31,0,2.59,1.8,4.39,4.54a21.55,21.55,0,0,0,1.9,2.64,53,53,0,0,0,6.85,5.9.53.53,0,0,1,.28.7.54.54,0,0,1-.69.28c-1.15-.49-5.85-4.73-7.21-6.15a22.09,22.09,0,0,1-2-2.78c-1-1.53-2.67-4.07-3.45-4.07a.86.86,0,0,0-.74.44c-.64,1-.6,3.74.74,7a24.55,24.55,0,0,0,2.89,5.24s4.37,4.19,3.77,5.44-10.56,1-10.65,1c-2-.16-9.18-.91-14.78-1.83-3-.48-9.24-1.24-10.18-.91a1.89,1.89,0,0,0-1.39,1.62,2.06,2.06,0,0,0,1.16,1.94c.71.36,9.81,2.2,12.34,2.61,12,2,12.94,2.59,13.06,3.38a.87.87,0,0,1-.17.54c-.48.5-2,.47-7.19.08-1.94-.15-3.75-.24-4.64-.25a41.32,41.32,0,0,1-4.69-.18c-1.27-.09-2.58-.18-3.66-.19l-2.13-.07c-2.46-.09-6.57-.23-7.4.11a2,2,0,0,0-1.12,1.83,2,2,0,0,0,1.08,1.89,69.22,69.22,0,0,0,8.28.79c1.07,0,3.22.19,5.16.33s3.52.24,3.88.24c12.35.1,12.56,1.05,12.66,1.5a.71.71,0,0,1-.12.51c-.37.45-1.54.61-8.2.67-1.17,0-2.14,0-2.55,0l-2.6.18c-2.38.17-5.62.41-6.82.45-2.21.08-6.07.46-7.05,1.11a2.19,2.19,0,0,0-.84,1.87,1.48,1.48,0,0,0,1,1.24c1.21.49,12.12-.32,17.35-.7,2-.15,3.6-.27,4.33-.3,2.23-.12,5.66.1,6.28.76a.8.8,0,0,1,.18.49c-.12,1.29-8.46,1.91-8.55,1.92-1.84.05-12.43,1.17-15.64,2.21a1.29,1.29,0,0,0-.88,1,1.8,1.8,0,0,0,.92,1.69c.58.31,4,.06,10.07-.75l1.2-.15c.87-.1,2.74-.22,4.72-.35s3.83-.24,4.87-.35c2.16-.21,8.09-.3,9-.32a.53.53,0,1,1,0,1.06c-1.48,0-6.93.12-8.91.31-1.06.11-3,.24-4.91.36s-3.83.25-4.67.34l-1.18.15A80.59,80.59,0,0,1,454.49,1017.39Z" transform="translate(-133.81 -115.03)"/><rect class="cls-61" x="281.88" y="795.79" width="137.3" height="6.64"/><rect class="cls-38" x="282.02" y="702.91" width="149.59" height="93.98"/><rect class="cls-6" x="282.02" y="702.91" width="95.09" height="93.98"/><rect class="cls-7" x="325.21" y="702.91" width="8.71" height="93.98"/><rect class="cls-8" x="329.07" y="702.91" width="1" height="93.98"/><rect class="cls-7" x="401.29" y="702.91" width="8.71" height="93.98"/><rect class="cls-7" x="341.71" y="776.39" width="28.93" height="14.48"/><rect class="cls-8" x="405.15" y="702.91" width="1" height="93.98"/><path class="cls-26" d="M377.11,967.78c-2-.22-4.49-2.26-4.57-3.85-.12-2.21-2.74-4.93-3.43-6.9-.15-.44-.67-3.85-1-5-1.05-3.49-1.94-5.24-2-6.63-.06-1,.92-2.92.81-4.63a13.07,13.07,0,0,1,0-3.9c.26-.87,6-6.23,9.66-7.6,3.17-1.19,12.22-1.33,13.34-.73,1.32.71,2.1,4.36,1.16,5.44-.32.37-8,1.41-9.56,2.35a60.4,60.4,0,0,0-6.56,4.89,42.85,42.85,0,0,1,8.43-2.76c4.94-1,10.73-.77,11.08-.49,1.41,1.12,2.36,4,1.43,5.09-.31.35-5.32.65-10.07,2.18A66.53,66.53,0,0,0,375.06,950a61.81,61.81,0,0,1,8.06-1.44,74,74,0,0,1,11.3-.39c1.3.36,1.92,3.44.57,5.06-.7.83-5.45,1.16-9.89,2.41a45.27,45.27,0,0,0-8.1,3.32s14.2-2.39,15.1-.94c.77,1.26,1.2,2-.18,4.08S377.93,967.87,377.11,967.78Z" transform="translate(-133.81 -115.03)"/><path class="cls-33" d="M379.79,967.61a.38.38,0,0,1-.39-.41.37.37,0,0,1,.36-.32c1,0,10.59-3.09,11.85-5s.92-2.47.17-3.68c-.55-.72-8.08,0-14.72,1.12a.36.36,0,0,1-.41-.24.39.39,0,0,1,.18-.45,45.13,45.13,0,0,1,8.17-3.35c2-.55,3.95-.92,5.69-1.25s3.71-.69,4-1a3.72,3.72,0,0,0,.49-3.29,1.64,1.64,0,0,0-.88-1.18,73.41,73.41,0,0,0-11.16.41,60.18,60.18,0,0,0-8,1.42.37.37,0,0,1-.43-.22.36.36,0,0,1,.16-.45,67.37,67.37,0,0,1,10.79-4.77,53.59,53.59,0,0,1,8-1.76,11.68,11.68,0,0,0,1.94-.37,1.75,1.75,0,0,0,.22-1.2,5.24,5.24,0,0,0-1.65-3.31,37.81,37.81,0,0,0-10.77.56,42,42,0,0,0-8.35,2.74.37.37,0,0,1-.39-.61,60.86,60.86,0,0,1,6.6-4.93c1-.59,3.91-1.16,6.52-1.66,1.3-.26,2.79-.54,3-.66a3.5,3.5,0,0,0,.16-2.35,3.83,3.83,0,0,0-1.27-2.48c-1-.52-9.87-.46-13,.74a.36.36,0,0,1-.47-.21.36.36,0,0,1,.21-.47c3.25-1.22,12.38-1.38,13.64-.71.89.47,1.43,1.86,1.65,3a3.83,3.83,0,0,1-.38,3c-.19.22-.63.33-3.37.86-2.29.44-5.43,1-6.28,1.56a49.8,49.8,0,0,0-4.61,3.31,39.49,39.49,0,0,1,6.22-1.85c4.63-.93,10.8-.87,11.38-.42a5.92,5.92,0,0,1,1.92,3.83,2.39,2.39,0,0,1-.45,1.8c-.2.22-.65.29-2.32.56a51.75,51.75,0,0,0-7.9,1.72,61,61,0,0,0-8.22,3.44c1.46-.3,3.37-.63,5.4-.85a74.54,74.54,0,0,1,11.43-.38,2.33,2.33,0,0,1,1.39,1.67,4.43,4.43,0,0,1-.63,4c-.45.54-1.83.82-4.44,1.3-1.73.32-3.7.68-5.63,1.23a41.68,41.68,0,0,0-5.87,2.23c4.57-.69,12.3-1.66,13.08-.39.87,1.42,1.26,2.26-.19,4.47S381.21,967.61,379.79,967.61Z" transform="translate(-133.81 -115.03)"/><path class="cls-26" d="M368.22,935.79s3.15-12.28,5.3-13.71,7.82-5.34,8.12-4.26c.59,2.12.47,4.61-.85,5.62a43.8,43.8,0,0,0-4,4.08l-1.22,3.82Z" transform="translate(-133.81 -115.03)"/><path class="cls-33" d="M376.77,927.89c-.4-.23-.41-.46-.28-.61a43.18,43.18,0,0,1,4.08-4.14c1.21-.91,1.23-3.29.74-5.15-1,0-5.5,3-7,4l-.59.39a.35.35,0,0,1-.5-.1.37.37,0,0,1,.1-.51l.58-.38c4.22-2.83,6.87-4.42,7.72-4.07a.55.55,0,0,1,.37.4c.6,2.17.53,4.87-1,6a44.38,44.38,0,0,0-4,4A.37.37,0,0,1,376.77,927.89Z" transform="translate(-133.81 -115.03)"/><circle class="cls-57" cx="3022.48" cy="1452.78" r="41.2" transform="translate(-324.83 378.9) rotate(-9.06)"/><circle class="cls-54" cx="3028.69" cy="1452.78" r="41.2" transform="translate(-460.43 1178.16) rotate(-22.9)"/><path class="cls-67" d="M3035.61,1456.82l-188.33-32.63,2.1-12.15,176.17,30.52,66.24-385.81a33.39,33.39,0,0,1,34.73-27.57l56.1,3.27-.72,12.32-56.11-3.28a20.91,20.91,0,0,0-21.84,17.35Z" transform="translate(-133.81 -115.03)"/><path class="cls-68" d="M3154.72,1455.86H3030.58a6.17,6.17,0,0,1,0-12.34h124.14a6.17,6.17,0,0,1,0,12.34Z" transform="translate(-133.81 -115.03)"/><path class="cls-68" d="M3180.29,1306.25l-122.73-.29a6.17,6.17,0,1,1,0-12.33l122.74.28a6.17,6.17,0,0,1,0,12.34Z" transform="translate(-133.81 -115.03)"/><path class="cls-68" d="M3207.59,1148.66l-122.36-.09a6.17,6.17,0,0,1,0-12.34l122.36.09a6.17,6.17,0,0,1,0,12.34Z" transform="translate(-133.81 -115.03)"/><polygon class="cls-69" points="2693.63 1296.85 2857.44 1324.22 2994.44 1322.86 2846.03 1296.85 2693.63 1296.85"/><polygon class="cls-6" points="2846.54 1296.85 2693.63 1296.85 2722.22 1117.13 2875.14 1117.13 2846.54 1296.85"/><polygon class="cls-6" points="2846.54 1296.85 2693.63 1296.85 2722.22 1117.13 2875.14 1117.13 2846.54 1296.85"/><polygon class="cls-43" points="2773.69 1296.95 2756.7 1296.9 2784.98 1116.88 2802.27 1116.88 2773.69 1296.95"/><polygon class="cls-38" points="3004.24 1324.75 2846.03 1296.85 2874.63 1117.13 3032.84 1145.04 3004.24 1324.75"/><polygon class="cls-6" points="2900.41 1299 2862.97 1292.3 2866.28 1270.69 2903.91 1277.39 2900.41 1299"/><polygon class="cls-6" points="2940.47 1313.74 2924.03 1310.85 2952.45 1130.74 2969.08 1133.63 2940.47 1313.74"/><path class="cls-68" d="M3159.75,1456.8l-190.33-32.35,2.07-12.15,178.19,30.28,66.25-385.83a33.33,33.33,0,0,1,34.72-27.57l56.1,3.27-.72,12.32-56.11-3.28a20.87,20.87,0,0,0-21.84,17.35Z" transform="translate(-133.81 -115.03)"/><circle class="cls-57" cx="3154.89" cy="1452.78" r="41.2" transform="translate(-165.8 -43.45) rotate(-1.29)"/><circle class="cls-54" cx="3161.1" cy="1452.78" r="41.2" transform="translate(-392.12 1978.7) rotate(-35.3)"/><circle class="cls-59" cx="3027.29" cy="1337.75" r="29.49"/><path class="cls-54" d="M3168.09,1454a7.09,7.09,0,1,1-5.79-8.18A7.09,7.09,0,0,1,3168.09,1454Z" transform="translate(-133.81 -115.03)"/><path class="cls-26" d="M3286.61,1031l1.78,18.29s-9.55,2.9-12.08,2.54-6.92-6.83-6.92-6.83Z" transform="translate(-133.81 -115.03)"/><path class="cls-4" d="M3252.44,1028.58h52.19a7.06,7.06,0,0,1,7.06,7.06v4.88a7.06,7.06,0,0,1-7.06,7.06h-52.19a0,0,0,0,1,0,0v-19A0,0,0,0,1,3252.44,1028.58Z" transform="translate(-39.38 -376.4) rotate(4.63)"/><path class="cls-26" d="M3143.3,1024.21c2.34-2.76,22.17-8.4,22.17-8.4l23.58,10.29a94.87,94.87,0,0,0-14.14,11.62c-5.31,5.56-8.48,12.07-9.11,12.57-1.66,1.32-2.9,1.92-4.46,1.32s-2.81-1.55-4.31-1.53-3.44.85-4.61.15-2.43-1.64-3.51-1.63-2.81,1-4,.58c-1.47-.47-2.31-1.9-3.37-2.1s-3.06.74-4.49.19c-.9-.34-2.47-2.67-2.64-3.36C3134,1042.26,3141,1027,3143.3,1024.21Z" transform="translate(-133.81 -115.03)"/><path class="cls-33" d="M3161.06,1027.32c-.62,0-1.25,0-1.86-.07a.41.41,0,0,1-.37-.43.41.41,0,0,1,.4-.37,21.58,21.58,0,0,0,13.29-3.21.39.39,0,0,1,.54.14.41.41,0,0,1-.14.55A23.1,23.1,0,0,1,3161.06,1027.32Z" transform="translate(-133.81 -115.03)"/><path class="cls-4" d="M3128,1027.75h52.19a7.06,7.06,0,0,1,7.06,7.06v4.88a7.06,7.06,0,0,1-7.06,7.06H3128a0,0,0,0,1,0,0v-19a0,0,0,0,1,0,0Z" transform="translate(-39.85 -366.38) rotate(4.63)"/><path class="cls-26" d="M3167.14,1048.25s2.93-7.53,1.4-9c-1.2-1.14-4.77,0-4.77,0s-.84-2-2.46-2.19a4.72,4.72,0,0,0-3.22,1.18s-1.34-2.25-3.16-2.25a6.62,6.62,0,0,0-3.39,1.52,3.66,3.66,0,0,0-2.27-1.28,3.82,3.82,0,0,0-3.07,1c-.62.46-8,8.61-8,8.61Z" transform="translate(-133.81 -115.03)"/><path class="cls-33" d="M3144.41,1046.29c-.42-.25-.44-.5-.29-.67l6.38-7a.4.4,0,0,1,.56,0,.39.39,0,0,1,0,.56l-6.37,7A.42.42,0,0,1,3144.41,1046.29Z" transform="translate(-133.81 -115.03)"/><path class="cls-33" d="M3151.9,1047.8c-.41-.2-.44-.45-.31-.63l6-8.23a.38.38,0,0,1,.55-.09.39.39,0,0,1,.09.55l-6,8.24A.39.39,0,0,1,3151.9,1047.8Z" transform="translate(-133.81 -115.03)"/><path class="cls-33" d="M3159.65,1048.79c-.38-.15-.45-.39-.35-.58l4.19-7.88a.41.41,0,0,1,.53-.17.39.39,0,0,1,.17.53l-4.19,7.88A.39.39,0,0,1,3159.65,1048.79Z" transform="translate(-133.81 -115.03)"/><path class="cls-68" d="M2971.05,1424.57l-122.73-.29a6.17,6.17,0,1,1,0-12.33l122.74.29a6.17,6.17,0,0,1,0,12.33Z" transform="translate(-133.81 -115.03)"/><path class="cls-68" d="M3067.17,1440.89l-122.73-.3a6.17,6.17,0,1,1,0-12.33l122.74.29a6.17,6.17,0,0,1,0,12.34Z" transform="translate(-133.81 -115.03)"/><path class="cls-26" d="M3248.48,995.54c-.07.82-59.43,30.56-59.43,30.56l-23.58-10.29L3233,976.73Z" transform="translate(-133.81 -115.03)"/><path class="cls-28" d="M3309.19,965.71c-6.66,12.85-59.58,33.5-59.58,33.5l-22.93-21.94s39.84-26.58,45.34-36.1c4.49-7.78,41.16-117.22,52-127.81,13.52-13.21,47.54-24.25,47.54-24.25C3361.86,856.93,3337,920.9,3309.19,965.71Z" transform="translate(-133.81 -115.03)"/><path class="cls-28" d="M3449.13,1105.38c-31.31,2.08-82.72-12.81-116.56.65,0,0,1.36-88.52-1.2-159.61-1.69-46.66-1.57-100.56-.28-111.24,3.24-27,49-51.71,49-51.71s32.49,27.22,41.35,47.66c4.84,11.17-5,102.81-3.73,170.17C3418.79,1057.09,3449.13,1105.38,3449.13,1105.38Z" transform="translate(-133.81 -115.03)"/><path class="cls-70" d="M3363.06,824.19c-17.93,87.34-16.3,189-23.6,278.3,17-5.08,33.65-5.07,47.27-3.81l-.72-52.1Z" transform="translate(-133.81 -115.03)"/><path class="cls-71" d="M3336.56,1493.36l-81.15-35.07s10.43-12.41,16.26-10.67c6,1.8,46,10.32,46,10.32,7.7,3.17,16.35,9.51,22.94,7.41C3343.13,1473.16,3341.26,1484.4,3336.56,1493.36Z" transform="translate(-133.81 -115.03)"/><g class="cls-50"><path class="cls-72" d="M3336.63,1489.81a.87.87,0,0,1-.32-.06l-76.41-33.29a.81.81,0,1,1,.64-1.48l76.41,33.29a.8.8,0,0,1,.42,1.06A.79.79,0,0,1,3336.63,1489.81Z" transform="translate(-133.81 -115.03)"/></g><path class="cls-71" d="M3599,1470.7,3512.51,1489s1.34-16.16,7.1-18.11c5.95-2,47.45-14.91,47.45-14.91,8.12-1.87,14.9-5,19.06-10.49C3592.68,1450.43,3597.65,1460.69,3599,1470.7Z" transform="translate(-133.81 -115.03)"/><g class="cls-50"><path class="cls-72" d="M3515,1484.93a.8.8,0,0,1-.18-1.59L3596,1464.9a.82.82,0,0,1,1,.61.8.8,0,0,1-.61,1l-81.26,18.45Z" transform="translate(-133.81 -115.03)"/></g><path class="cls-30" d="M3595.06,1456.91c-2.18,2.53-54.39,7.13-54.39,7.13s-66-173.23-75.91-191.31-28.85-109.64-28.85-109.64c-20.37,95.29-57.83,222-94.28,318l-43.23-28.41c33.08-127.61,68.25-278.76,81.38-395.29l135.13,17.18s4.32,147.49,8.93,157.82C3529.85,1245.92,3595.06,1456.91,3595.06,1456.91Z" transform="translate(-133.81 -115.03)"/><g class="cls-35"><path class="cls-73" d="M3433.89,1153.38a.7.7,0,0,1-.69-.63l-7-76.43-7.11.85c1.35,15.71,4.05,45,5,47.61,1.14,3.19,6.38,6.24,6.43,6.27a.69.69,0,1,1-.68,1.2c-.24-.14-5.74-3.34-7-7-1.26-3.51-5-46.78-5.13-48.62a.69.69,0,0,1,.6-.75l8.48-1a.55.55,0,0,1,.52.15.68.68,0,0,1,.26.47l7,77.15a.7.7,0,0,1-.63.75Z" transform="translate(-133.81 -115.03)"/></g><path class="cls-26" d="M3378.82,781.61c1.1-3.57,1.47-23.91,1.47-23.91L3412.66,745s12.76,33.89,15.41,39,17.33,13.08,17.33,13.08c-41.3,48.53-49.48,49-76,7.77C3370.16,803.82,3377.73,785.18,3378.82,781.61Z" transform="translate(-133.81 -115.03)"/><path class="cls-27" d="M3380.83,757.49s26.16-11.24,27.32-3.71c-2.28,17.32-14.08,24.78-28.24,29.12C3379,771.36,3380.83,757.49,3380.83,757.49Z" transform="translate(-133.81 -115.03)"/><path class="cls-26" d="M3346,691.54c3.17-8.25,16.32-18.61,41-19.61,49.12-2,27.15,57.58,27.15,57.58s-1.79,21.19-2.68,23.55c-4.45,11.69-38,27.74-45,21C3356.15,764.16,3341.21,704.1,3346,691.54Z" transform="translate(-133.81 -115.03)"/><path class="cls-74" d="M3340,691.13c.3-3.37,2.37-17.18,10.47-17.78a24.61,24.61,0,0,0,6.77-1.14c2-.68.84-2,2-5.3.53-1.57,3.85-3.68,7-3.95,3.46-.29,5.4,2.22,6.68,1.54,1.76-.91-.76-3.15.14-5,3.19-6.43,20.88-2.6,27.38,2.36,4.09,3.12,2.34,9,2.34,9s4.47-2.05,8-1.73,12.51,7.22,13.23,9.2c1.36,3.72-1.51,9.24-1.23,12,.29,2.46,4.83,14,3.51,17.94-.85,2.55-3.1,6.57-7.23,7.55-2.12.52-3.67.81-3.67.81s-2.44,4.53-4.9,8.2a21.42,21.42,0,0,1-3.06,4,2,2,0,0,1-1,.59c-2.15.17-3.14-10.66-8.59-14.24-2.06-1.36,2-15.27-1.8-15.56s-7.17,4.51-9.92,5.85c-3.69,1.81-29-.22-30.57.6-1.32.67-3.09,6.58-7.24,4.37-2.89-1.54-5.57-3.61-3.77-7.26C3346.89,698.39,3339.84,693.31,3340,691.13Z" transform="translate(-133.81 -115.03)"/><path class="cls-32" d="M3509.89,1061.67s-9.13-85.92-11.08-102.59-5.42-121.06-18.64-136.61-44.12-29.73-44.12-29.73c-33.42,24-50.48,23.07-60.54-2.37,0,0-8.17,16.93-12.25,28.19-16,44.1,17,240.12,17,240.12C3427.92,1066.47,3466,1066.76,3509.89,1061.67Z" transform="translate(-133.81 -115.03)"/><path class="cls-75" d="M3423.33,808.16s-16.09,9.58-29.7,6.58c-13.4-3-21.05-18.31-21.05-18.31l2.93-6.06s8.76,16.47,20.12,19.06c8.95,2.05,24.78-6.25,24.78-6.25Z" transform="translate(-133.81 -115.03)"/><path class="cls-76" d="M3509.62,1048.12c.64,2.83,2,7,2,7-42.64,12.82-83.14,11.31-131.65,4.24l-1.29-8.7C3411.07,1057.44,3452.35,1059.1,3509.62,1048.12Z" transform="translate(-133.81 -115.03)"/><path class="cls-28" d="M3533.19,1083.64c-22.9,12.57-73.87,30.45-113.35,32.63,0,0-9.86-98.48-20.05-168.89-6.68-46.21-1.07-96.94,1.33-107.14,6.23-26.43,27-59.6,27-59.6s45.07,19.8,59.54,43.84c8.49,14.1,8.83,105.28,17.32,172.11C3512,1052,3533.19,1083.64,3533.19,1083.64Z" transform="translate(-133.81 -115.03)"/><path class="cls-34" d="M3493.83,1056.18l-36.25,9.23a11.46,11.46,0,0,1-13.31-6.45l-4.17-9.35,47-11.88Z" transform="translate(-133.81 -115.03)"/><path class="cls-28" d="M3467,985.5c-16.28,24.32-103.81,34.58-103.81,34.58l-16.56-30.61s58.57-24,71.28-39.79-9.21-116.76.5-126,46.34-4.06,59.1,6.34S3483.28,961.18,3467,985.5Z" transform="translate(-133.81 -115.03)"/><g class="cls-35"><path class="cls-77" d="M3402.56,960.19a.87.87,0,0,1-.83-.59.88.88,0,0,1,.54-1.12c.12,0,11.7-4.12,14.9-9.26,5.56-9,7.27-35.71,8.93-61.54,1.44-22.55,2.8-43.86,6.76-51a.89.89,0,0,1,1.55.86c-3.78,6.82-5.13,27.93-6.56,50.29-1.66,26-3.39,53-9.19,62.34-3.52,5.68-15.31,9.83-15.81,10A.92.92,0,0,1,3402.56,960.19Z" transform="translate(-133.81 -115.03)"/></g><g class="cls-35"><path class="cls-77" d="M3410.4,1012.18a.88.88,0,0,1-.15-1.75c.41-.07,41.58-7.66,56.07-25.49,9.75-12,15.86-56,17.58-94.37a.88.88,0,0,1,.92-.84.87.87,0,0,1,.84.91c-1.6,35.8-7.28,82.26-18,95.41-14.91,18.34-55.42,25.81-57.13,26.12Z" transform="translate(-133.81 -115.03)"/></g><g class="cls-35"><path class="cls-77" d="M3331.73,925.47a.89.89,0,0,1-.88-.91l2.42-90.27a.92.92,0,0,1,.91-.86.87.87,0,0,1,.85.9l-2.42,90.28A.88.88,0,0,1,3331.73,925.47Z" transform="translate(-133.81 -115.03)"/></g><path class="cls-26" d="M3257.83,1022.83c2.33-2.76,30.52-10.27,30.52-10.27l9.62,16.31s-16.94,20.29-18.28,21.36c-1.66,1.32-2.9,1.92-4.45,1.32s-2.82-1.55-4.31-1.53-3.44.85-4.62.15-2.43-1.64-3.51-1.63-2.81,1-4,.58c-1.46-.47-2.31-1.9-3.37-2.1s-3.89.61-5.31.06a9.18,9.18,0,0,1-3-3.46C3246.68,1042,3255.49,1025.58,3257.83,1022.83Z" transform="translate(-133.81 -115.03)"/><path class="cls-33" d="M3273.33,1048.52c-.36-.12-.45-.36-.36-.56l5.85-13.12a.42.42,0,0,1,.52-.2.39.39,0,0,1,.2.52l-5.85,13.12A.39.39,0,0,1,3273.33,1048.52Z" transform="translate(-133.81 -115.03)"/><path class="cls-33" d="M3264.6,1047c-.35-.11-.44-.34-.36-.54l5.06-12.69a.39.39,0,0,1,.52-.22.39.39,0,0,1,.22.51l-5.07,12.69A.39.39,0,0,1,3264.6,1047Z" transform="translate(-133.81 -115.03)"/><path class="cls-33" d="M3256.8,1045.06c-.35-.12-.45-.36-.36-.56l5.14-12a.39.39,0,1,1,.72.31l-5.14,12A.39.39,0,0,1,3256.8,1045.06Z" transform="translate(-133.81 -115.03)"/><path class="cls-78" d="M3264.16,996.82c1.4-2.21-23.76-31.41-25.92-31.2s-9.41,7.85-10.2,8.15-6.26,2.77-6,4.07,24.14,26.6,26.36,26.93c1.18.17,4.57-1.9,8.28-3.81C3259.88,999.3,3263.51,997.86,3264.16,996.82Z" transform="translate(-133.81 -115.03)"/><path class="cls-26" d="M3362.82,1017.85c-.39.72-74.12,18.07-74.12,18.07l-.35-23.36,59-19Z" transform="translate(-133.81 -115.03)"/><path class="cls-78" d="M3374,1020.49c1.74-2-17.58-36.23-19.75-36.58s-11.3,5.33-12.15,5.42-6.45,2.46-6.74,3.78c-.75,3.34,16.63,31,18.83,32,1.14.5,4.78-.78,8.83-1.65C3366.8,1022.63,3373.19,1021.46,3374,1020.49Z" transform="translate(-133.81 -115.03)"/><g class="cls-35"><path class="cls-77" d="M3442,958.35c-.3-.06-1.08-.34-1.08-.34-6.56-2.39-14.71-5.35-21.89-5.35h-.36a.89.89,0,0,1-.85-.64.91.91,0,0,1,.4-1c7-4.26,15.82-4.22,23.51-3.85a.9.9,0,0,1,.84.93,1,1,0,0,1-.93.83c-6.65-.33-13.58-.39-19.58,2.11,6.64.65,13.66,3.2,19.46,5.32l.78.28a.88.88,0,0,1-.3,1.71Z" transform="translate(-133.81 -115.03)"/></g><g class="cls-35"><path class="cls-77" d="M3295.48,949.12c-.3-.06-1.08-.34-1.08-.34-6.57-2.39-14.72-5.35-21.89-5.35h-.36a.89.89,0,0,1-.85-.64.91.91,0,0,1,.39-1c7-4.27,15.83-4.21,23.52-3.85a.89.89,0,0,1,.84.93.93.93,0,0,1-.92.83c-6.37-.3-13.51-.39-19.58,2.12,6.64.64,13.65,3.2,19.45,5.3l.78.29a.88.88,0,0,1-.3,1.71Z" transform="translate(-133.81 -115.03)"/></g><path class="cls-79" d="M3340.44,691.71c-4.82,1.19-7.67,9-4.56,17s8.77,6.16,12.69,5,8-5.15,10.21-7.44,16.4.23,23.67-2.36a49.66,49.66,0,0,0,13.24-7.59S3345.25,690.51,3340.44,691.71Z" transform="translate(-133.81 -115.03)"/><path class="cls-26" d="M3409,716.46c2.24-2.73,14.25-7.2,16,.65s-2,21.9-7,23.72c-3.75,1.39-9.84-2.16-10.38-2.86S3406.75,719.19,3409,716.46Z" transform="translate(-133.81 -115.03)"/><path class="cls-28" d="M3330.61,687.3s-10.81-8.8-10.59-17.58,14.76-30.07,38.86-32.51c25-2.53,67.22,17.33,71,22,7.52,9.24-7.1,25.65-7.88,26.37S3330.61,687.3,3330.61,687.3Z" transform="translate(-133.81 -115.03)"/><path class="cls-29" d="M3353,659.71c.61,5.32,3.4,9.32,6.23,8.93s4.64-5,4-10.34-3.4-9.32-6.24-8.94S3352.37,654.38,3353,659.71Z" transform="translate(-133.81 -115.03)"/><path class="cls-30" d="M3315.84,698.86c.47,4.31,38.89,3.9,55.25,1.78s49.9-13.06,49.13-15.9-38.7-9.67-60.71-8.37c-13.28.79-29.89,8.92-29.89,8.92S3315.31,694,3315.84,698.86Z" transform="translate(-133.81 -115.03)"/><path class="cls-31" d="M3329.76,686.2a1.86,1.86,0,0,1-.82-3.54c20.84-10.2,51.87-10.47,92.22-.77a1.86,1.86,0,0,1-.87,3.62c-39.5-9.49-69.67-9.32-89.71.5A1.89,1.89,0,0,1,3329.76,686.2Z" transform="translate(-133.81 -115.03)"/><path class="cls-26" d="M3143.3,1024.21s-8.94,10.63-8.64,11.24,4.26.71,5.38.41,10.64-7.2,10.64-7.2l10.45-3-8.32-3.15Z" transform="translate(-133.81 -115.03)"/><path class="cls-80" d="M1975.07,293.62a15.17,15.17,0,0,1-2.41,8.4,16,16,0,0,1-7.05,5.84,26.49,26.49,0,0,1-11,2.11q-7.63,0-12.59-2.89a16.69,16.69,0,0,1-5.71-5.53,12.53,12.53,0,0,1-2.2-6.73,4.56,4.56,0,0,1,4.68-4.61,4,4,0,0,1,2.79,1.05,8.41,8.41,0,0,1,2,3.13,21.25,21.25,0,0,0,2.13,4.12,8.53,8.53,0,0,0,3.22,2.72,11.78,11.78,0,0,0,5.44,1.07,12.33,12.33,0,0,0,7.55-2.16,6.51,6.51,0,0,0,2.9-5.39,5.72,5.72,0,0,0-1.57-4.17,10,10,0,0,0-4-2.44,68.68,68.68,0,0,0-6.63-1.8,48.31,48.31,0,0,1-9.3-3,15.12,15.12,0,0,1-5.94-4.74,12.39,12.39,0,0,1-2.2-7.48,12.86,12.86,0,0,1,2.32-7.55,14.59,14.59,0,0,1,6.72-5.08,27.34,27.34,0,0,1,10.33-1.78,25.37,25.37,0,0,1,8.21,1.18,17.23,17.23,0,0,1,5.75,3.13,12.91,12.91,0,0,1,3.34,4.09,9.52,9.52,0,0,1,1.06,4.19,4.92,4.92,0,0,1-1.32,3.35,4.21,4.21,0,0,1-3.29,1.5,3.77,3.77,0,0,1-2.72-.9,12.18,12.18,0,0,1-2-2.93,13.23,13.23,0,0,0-3.37-4.56q-2-1.64-6.33-1.63a11,11,0,0,0-6.52,1.77,5.19,5.19,0,0,0-2.48,4.28,4.28,4.28,0,0,0,.85,2.67,7,7,0,0,0,2.32,1.93,16,16,0,0,0,3,1.27c1,.3,2.68.75,5,1.33a79.26,79.26,0,0,1,7.89,2.25,24.08,24.08,0,0,1,6,3,12.38,12.38,0,0,1,3.87,4.45A14.3,14.3,0,0,1,1975.07,293.62Z" transform="translate(-133.81 -115.03)"/><path class="cls-80" d="M2008.18,304.55v-1.23a20.6,20.6,0,0,1-3.62,3.66,13.37,13.37,0,0,1-4.15,2.2,16.82,16.82,0,0,1-5.13.72,13.29,13.29,0,0,1-6.24-1.44,10.53,10.53,0,0,1-4.27-4c-1.2-2-1.79-5-1.79-8.79v-19a6.18,6.18,0,0,1,1.3-4.3,4.42,4.42,0,0,1,3.44-1.43,4.54,4.54,0,0,1,3.52,1.45,6.1,6.1,0,0,1,1.33,4.28V292a23.46,23.46,0,0,0,.57,5.61,6.74,6.74,0,0,0,2,3.55,5.79,5.79,0,0,0,3.95,1.28,8,8,0,0,0,4.57-1.44,8.4,8.4,0,0,0,3.13-3.76q.81-2,.81-8.93V276.67a6.1,6.1,0,0,1,1.34-4.28,4.5,4.5,0,0,1,3.48-1.45,4.42,4.42,0,0,1,3.44,1.43,6.18,6.18,0,0,1,1.3,4.3v27.81a6,6,0,0,1-1.24,4.12,4.44,4.44,0,0,1-6.47-.06A5.73,5.73,0,0,1,2008.18,304.55Z" transform="translate(-133.81 -115.03)"/><path class="cls-80" d="M2035.61,262.16v14.66a22.23,22.23,0,0,1,5.51-4.31,14.7,14.7,0,0,1,7-1.5,15.42,15.42,0,0,1,8.38,2.27,14.89,14.89,0,0,1,5.59,6.58,24.24,24.24,0,0,1,2,10.21,27.33,27.33,0,0,1-1.11,8,19,19,0,0,1-3.22,6.31,14.48,14.48,0,0,1-5.11,4.13A15.06,15.06,0,0,1,2048,310a16,16,0,0,1-4.17-.53,12.06,12.06,0,0,1-3.32-1.39,15.2,15.2,0,0,1-2.34-1.77c-.64-.61-1.49-1.53-2.54-2.75v1a5.78,5.78,0,0,1-1.31,4.1A4.33,4.33,0,0,1,2031,310a4.12,4.12,0,0,1-3.25-1.39,6.06,6.06,0,0,1-1.21-4.1v-41.9a7,7,0,0,1,1.17-4.41,4,4,0,0,1,3.29-1.5,4.23,4.23,0,0,1,3.41,1.42A6.16,6.16,0,0,1,2035.61,262.16Zm.45,28.51c0,3.82.88,6.75,2.62,8.8a8.6,8.6,0,0,0,6.87,3.08,7.87,7.87,0,0,0,6.24-3.15c1.75-2.09,2.62-5.1,2.62-9a17.56,17.56,0,0,0-1.09-6.54,9.44,9.44,0,0,0-3.09-4.24,7.58,7.58,0,0,0-4.68-1.49,8.31,8.31,0,0,0-4.88,1.49,10,10,0,0,0-3.38,4.32A16.87,16.87,0,0,0,2036.06,290.67Z" transform="translate(-133.81 -115.03)"/><path class="cls-80" d="M2102.65,297.42a11.15,11.15,0,0,1-7.65,11.09,25.64,25.64,0,0,1-9.19,1.46,22.49,22.49,0,0,1-8.86-1.58,13,13,0,0,1-5.45-4,8,8,0,0,1-1.76-4.76,3.69,3.69,0,0,1,1.13-2.71,3.86,3.86,0,0,1,2.84-1.13,3.36,3.36,0,0,1,2.33.74,8.44,8.44,0,0,1,1.54,2.08,10.47,10.47,0,0,0,3.54,3.83,10.68,10.68,0,0,0,5.6,1.27,8.08,8.08,0,0,0,4.73-1.29,3.6,3.6,0,0,0,1.85-2.93,4,4,0,0,0-1.92-3.7,23.77,23.77,0,0,0-6.31-2.21A53,53,0,0,1,2077,291a13.44,13.44,0,0,1-5-3.57,8.2,8.2,0,0,1-1.87-5.45,9.61,9.61,0,0,1,1.73-5.45,11.83,11.83,0,0,1,5.08-4.1,19.45,19.45,0,0,1,8.1-1.53,26.45,26.45,0,0,1,6.7.78,16.65,16.65,0,0,1,4.95,2.07,10.26,10.26,0,0,1,3,2.88,5.68,5.68,0,0,1,1,3.1,3.59,3.59,0,0,1-1.11,2.71,4.41,4.41,0,0,1-3.15,1,3.86,3.86,0,0,1-2.51-.84,17.76,17.76,0,0,1-2.38-2.53,8.56,8.56,0,0,0-2.56-2.25,8,8,0,0,0-4-.85,7.81,7.81,0,0,0-4.32,1.11,3.24,3.24,0,0,0-1.73,2.76,3,3,0,0,0,1.27,2.48,10.73,10.73,0,0,0,3.41,1.6q2.15.63,5.91,1.54a31.71,31.71,0,0,1,7.29,2.61,12,12,0,0,1,4.29,3.56A7.94,7.94,0,0,1,2102.65,297.42Z" transform="translate(-133.81 -115.03)"/><path class="cls-80" d="M2145.19,298.08a8.35,8.35,0,0,1-1.07,3.84,13.29,13.29,0,0,1-3.27,3.88,16.94,16.94,0,0,1-5.54,3,23.52,23.52,0,0,1-7.52,1.13q-8.89,0-13.89-5.19t-5-13.9a22.92,22.92,0,0,1,2.28-10.44,16.37,16.37,0,0,1,6.61-7,20.48,20.48,0,0,1,10.34-2.48A20.68,20.68,0,0,1,2135,272a17.86,17.86,0,0,1,5.28,2.82,13.33,13.33,0,0,1,3.3,3.67,7.3,7.3,0,0,1,1.15,3.64,3.83,3.83,0,0,1-1.29,2.92,4.41,4.41,0,0,1-3.11,1.19,3.15,3.15,0,0,1-2-.61,10.25,10.25,0,0,1-1.77-2,14.63,14.63,0,0,0-3.67-4,9,9,0,0,0-11.73,2q-2.59,3.32-2.6,9.09a17.37,17.37,0,0,0,.67,5,11.33,11.33,0,0,0,1.93,3.87,8.16,8.16,0,0,0,3.06,2.42,9.15,9.15,0,0,0,3.94.83,8.8,8.8,0,0,0,4.94-1.34,11.67,11.67,0,0,0,3.63-4.07,9.43,9.43,0,0,1,1.9-2.53,3.61,3.61,0,0,1,2.5-.92,3.72,3.72,0,0,1,2.92,1.34A4.29,4.29,0,0,1,2145.19,298.08Z" transform="translate(-133.81 -115.03)"/><path class="cls-80" d="M2163.08,296.12v8a6.2,6.2,0,0,1-1.37,4.38,4.57,4.57,0,0,1-3.48,1.46,4.38,4.38,0,0,1-3.41-1.48,6.3,6.3,0,0,1-1.34-4.36V277.41q0-6.46,4.68-6.47a3.92,3.92,0,0,1,3.45,1.52,8.32,8.32,0,0,1,1.16,4.46,16.4,16.4,0,0,1,3.53-4.46,7.3,7.3,0,0,1,4.83-1.52,12.32,12.32,0,0,1,5.87,1.52c1.9,1,2.85,2.34,2.85,4a3.79,3.79,0,0,1-1.21,2.9,3.74,3.74,0,0,1-2.62,1.15,12.37,12.37,0,0,1-2.55-.65,11.68,11.68,0,0,0-3.57-.65,5.26,5.26,0,0,0-3.44,1.1,7.22,7.22,0,0,0-2.08,3.29,23.14,23.14,0,0,0-1,5.19C2163.18,290.79,2163.08,293.23,2163.08,296.12Z" transform="translate(-133.81 -115.03)"/><path class="cls-80" d="M2189.94,266.48a5.08,5.08,0,0,1-3.43-1.23,4.78,4.78,0,0,1,0-6.84,4.89,4.89,0,0,1,3.39-1.32,5,5,0,0,1,3.31,1.2,4.26,4.26,0,0,1,1.44,3.48,4.37,4.37,0,0,1-1.41,3.46A4.88,4.88,0,0,1,2189.94,266.48Zm4.75,9.91v27.74a6.21,6.21,0,0,1-1.37,4.36,4.54,4.54,0,0,1-3.48,1.48,4.36,4.36,0,0,1-3.43-1.51,6.39,6.39,0,0,1-1.32-4.33V276.67a6.14,6.14,0,0,1,1.32-4.28,4.41,4.41,0,0,1,3.43-1.45,4.59,4.59,0,0,1,3.48,1.45A5.58,5.58,0,0,1,2194.69,276.39Z" transform="translate(-133.81 -115.03)"/><path class="cls-80" d="M2213.46,276.32v1.16a19,19,0,0,1,5.63-4.9,13.76,13.76,0,0,1,6.61-1.57,15.32,15.32,0,0,1,8.15,2.29,15.68,15.68,0,0,1,5.89,6.68,23.36,23.36,0,0,1,2.16,10.41,25.12,25.12,0,0,1-1.25,8.13,18.28,18.28,0,0,1-3.42,6.23A15.08,15.08,0,0,1,2225.7,310a13.36,13.36,0,0,1-6.91-1.65,19.75,19.75,0,0,1-5.33-4.86v14.42q0,6.33-4.6,6.33c-1.81,0-3-.55-3.59-1.64a10.24,10.24,0,0,1-.88-4.76V276.39a6,6,0,0,1,1.2-4.09,4.13,4.13,0,0,1,3.27-1.36,4.35,4.35,0,0,1,3.32,1.39A5.71,5.71,0,0,1,2213.46,276.32Zm18.81,14a16.66,16.66,0,0,0-1.16-6.52,9.51,9.51,0,0,0-3.22-4.18,7.64,7.64,0,0,0-4.55-1.46,8.54,8.54,0,0,0-6.7,3.13q-2.71,3.12-2.72,9.21,0,5.73,2.7,8.91a8.49,8.49,0,0,0,6.72,3.18,7.69,7.69,0,0,0,4.43-1.39A9.5,9.5,0,0,0,2231,297,16.56,16.56,0,0,0,2232.27,290.28Z" transform="translate(-133.81 -115.03)"/><path class="cls-80" d="M2250.13,271.79h1V266c0-1.54,0-2.76.13-3.64a5.36,5.36,0,0,1,.68-2.26,4.37,4.37,0,0,1,1.62-1.6,4.58,4.58,0,0,1,2.35-.62,4.76,4.76,0,0,1,3.31,1.37,4.09,4.09,0,0,1,1.25,2.23,20.93,20.93,0,0,1,.26,3.75v6.54h3.52a4.52,4.52,0,0,1,3.11,1,3.22,3.22,0,0,1,1.07,2.48,2.77,2.77,0,0,1-1.53,2.71,9.88,9.88,0,0,1-4.38.77h-1.79v17.65a27.8,27.8,0,0,0,.16,3.47,3.52,3.52,0,0,0,.84,2,2.87,2.87,0,0,0,2.24.76,11.86,11.86,0,0,0,2.28-.3,11.8,11.8,0,0,1,2.25-.3,2.89,2.89,0,0,1,2.09.93,3.14,3.14,0,0,1,.93,2.31,3.85,3.85,0,0,1-2.53,3.55,17.07,17.07,0,0,1-7.27,1.23c-3,0-5.28-.51-6.82-1.51a7,7,0,0,1-3-4.19,28.38,28.38,0,0,1-.72-7.13V278.71h-1.26a4.58,4.58,0,0,1-3.17-1,3.25,3.25,0,0,1-1.09-2.5,3.1,3.1,0,0,1,1.15-2.48A5,5,0,0,1,2250.13,271.79Z" transform="translate(-133.81 -115.03)"/><path class="cls-80" d="M2279.94,266.48a5.08,5.08,0,0,1-3.43-1.23,4.78,4.78,0,0,1,0-6.84,4.89,4.89,0,0,1,3.39-1.32,5,5,0,0,1,3.31,1.2,4.26,4.26,0,0,1,1.44,3.48,4.37,4.37,0,0,1-1.41,3.46A4.88,4.88,0,0,1,2279.94,266.48Zm4.75,9.91v27.74a6.21,6.21,0,0,1-1.37,4.36,4.54,4.54,0,0,1-3.48,1.48,4.36,4.36,0,0,1-3.43-1.51,6.39,6.39,0,0,1-1.32-4.33V276.67a6.14,6.14,0,0,1,1.32-4.28,4.41,4.41,0,0,1,3.43-1.45,4.59,4.59,0,0,1,3.48,1.45A5.58,5.58,0,0,1,2284.69,276.39Z" transform="translate(-133.81 -115.03)"/><path class="cls-80" d="M2330.53,290.46a22.72,22.72,0,0,1-1.33,7.91,17.65,17.65,0,0,1-3.87,6.22,17.26,17.26,0,0,1-6,4,21.48,21.48,0,0,1-7.91,1.39,20.71,20.71,0,0,1-7.84-1.41,17.28,17.28,0,0,1-9.9-10.21,24.51,24.51,0,0,1,0-15.87,17.36,17.36,0,0,1,3.83-6.19,17,17,0,0,1,6.05-4,21.48,21.48,0,0,1,7.84-1.39,21.26,21.26,0,0,1,7.91,1.41,17.07,17.07,0,0,1,6.08,4,17.28,17.28,0,0,1,3.85,6.19A22.71,22.71,0,0,1,2330.53,290.46Zm-9.63,0c0-3.92-.86-7-2.59-9.14a8.38,8.38,0,0,0-6.94-3.27,8.64,8.64,0,0,0-5,1.45,9.25,9.25,0,0,0-3.3,4.31,17.6,17.6,0,0,0-1.16,6.65,17.41,17.41,0,0,0,1.14,6.57,9.41,9.41,0,0,0,3.27,4.31,8.54,8.54,0,0,0,5,1.49,8.34,8.34,0,0,0,6.94-3.29Q2320.9,296.26,2320.9,290.46Z" transform="translate(-133.81 -115.03)"/><path class="cls-80" d="M2346.81,276.25v1.16a16.79,16.79,0,0,1,5.54-4.9,14.75,14.75,0,0,1,6.9-1.57,13.8,13.8,0,0,1,6.79,1.66,10.48,10.48,0,0,1,4.46,4.67,10.81,10.81,0,0,1,1.23,3.8,38.66,38.66,0,0,1,.29,5.2v17.86a6.35,6.35,0,0,1-1.32,4.36,4.37,4.37,0,0,1-3.43,1.48,4.45,4.45,0,0,1-3.48-1.51,6.34,6.34,0,0,1-1.34-4.33v-16a15.94,15.94,0,0,0-1.32-7.26c-.87-1.68-2.63-2.52-5.25-2.52a7.8,7.8,0,0,0-4.68,1.53,8.85,8.85,0,0,0-3.09,4.2q-.71,2.15-.7,8v12a6.2,6.2,0,0,1-1.36,4.38,4.56,4.56,0,0,1-3.5,1.46,4.39,4.39,0,0,1-3.41-1.51,6.34,6.34,0,0,1-1.33-4.33V276.39a6.07,6.07,0,0,1,1.19-4.09,4.16,4.16,0,0,1,3.27-1.36,4.42,4.42,0,0,1,2.29.6,4.31,4.31,0,0,1,1.63,1.79A6.33,6.33,0,0,1,2346.81,276.25Z" transform="translate(-133.81 -115.03)"/><path class="cls-80" d="M1953.3,387.72,1945,354.88v35.58a6.46,6.46,0,0,1-1.32,4.43,4.42,4.42,0,0,1-3.49,1.48,4.47,4.47,0,0,1-3.45-1.46,6.42,6.42,0,0,1-1.33-4.45V349.68q0-3.37,1.75-4.55A8.41,8.41,0,0,1,1942,344h3.23a12.37,12.37,0,0,1,4.24.53,3.52,3.52,0,0,1,1.95,1.9,29.66,29.66,0,0,1,1.44,4.46l7.49,28.23,7.49-28.23a29.66,29.66,0,0,1,1.44-4.46,3.52,3.52,0,0,1,2-1.9,12.37,12.37,0,0,1,4.24-.53h3.23a8.39,8.39,0,0,1,4.75,1.18q1.75,1.17,1.76,4.55v40.78a6.46,6.46,0,0,1-1.32,4.43,4.5,4.5,0,0,1-3.54,1.48,4.4,4.4,0,0,1-3.41-1.48,6.41,6.41,0,0,1-1.33-4.43V354.88l-8.26,32.84c-.54,2.13-1,3.7-1.32,4.69a6.51,6.51,0,0,1-1.88,2.73,5.5,5.5,0,0,1-3.8,1.23,5.77,5.77,0,0,1-3.09-.79,5.68,5.68,0,0,1-2-2,11.65,11.65,0,0,1-1.11-2.73C1953.86,389.83,1953.59,388.8,1953.3,387.72Z" transform="translate(-133.81 -115.03)"/><path class="cls-80" d="M2019.47,391a29.6,29.6,0,0,1-6.73,4.06,18.7,18.7,0,0,1-7.3,1.36,13.82,13.82,0,0,1-6.48-1.46,10.61,10.61,0,0,1-4.31-4,10.2,10.2,0,0,1-1.51-5.41,9.74,9.74,0,0,1,2.49-6.72,12.49,12.49,0,0,1,6.86-3.72c.61-.14,2.12-.46,4.53-1s4.49-.94,6.21-1.35,3.59-.91,5.61-1.5a10,10,0,0,0-1.53-5.57c-.91-1.18-2.77-1.78-5.61-1.78a11.66,11.66,0,0,0-5.5,1A9,9,0,0,0,2003,368c-.88,1.36-1.5,2.26-1.86,2.69a3,3,0,0,1-2.34.65,4,4,0,0,1-2.79-1,3.35,3.35,0,0,1-1.18-2.65,8.13,8.13,0,0,1,1.79-4.92,12.8,12.8,0,0,1,5.59-3.94,25.23,25.23,0,0,1,9.46-1.55,26.69,26.69,0,0,1,10,1.5,9.2,9.2,0,0,1,5.11,4.73,20.55,20.55,0,0,1,1.5,8.57c0,2.25,0,4.17,0,5.74s0,3.31,0,5.23a19.58,19.58,0,0,0,.89,5.65,17.56,17.56,0,0,1,.9,3.78,3.5,3.5,0,0,1-1.39,2.68,4.63,4.63,0,0,1-3.14,1.22,4.26,4.26,0,0,1-2.92-1.39A20.83,20.83,0,0,1,2019.47,391Zm-.63-13.88a49.19,49.19,0,0,1-6.14,1.63q-4,.87-5.57,1.27a7.47,7.47,0,0,0-3,1.58,4,4,0,0,0-1.41,3.29,4.88,4.88,0,0,0,1.65,3.71,6.15,6.15,0,0,0,4.33,1.52,11.26,11.26,0,0,0,5.25-1.24,8.33,8.33,0,0,0,3.54-3.22c.86-1.45,1.3-3.84,1.3-7.17Z" transform="translate(-133.81 -115.03)"/><path class="cls-80" d="M2046.71,362.65v1.16a16.89,16.89,0,0,1,5.54-4.9,14.82,14.82,0,0,1,6.91-1.57A13.85,13.85,0,0,1,2066,359a10.48,10.48,0,0,1,4.46,4.67,11.23,11.23,0,0,1,1.23,3.8,38.89,38.89,0,0,1,.28,5.2v17.86a6.35,6.35,0,0,1-1.32,4.36,4.36,4.36,0,0,1-3.42,1.48,4.45,4.45,0,0,1-3.48-1.51,6.29,6.29,0,0,1-1.34-4.33v-16a15.94,15.94,0,0,0-1.32-7.26q-1.32-2.52-5.25-2.52a7.78,7.78,0,0,0-4.68,1.53,8.72,8.72,0,0,0-3.09,4.2q-.7,2.14-.71,8v12a6.24,6.24,0,0,1-1.35,4.38,4.56,4.56,0,0,1-3.5,1.46,4.37,4.37,0,0,1-3.41-1.51,6.34,6.34,0,0,1-1.34-4.33V362.79a6,6,0,0,1,1.2-4.09,4.16,4.16,0,0,1,3.27-1.36,4.39,4.39,0,0,1,2.28.6,4.33,4.33,0,0,1,1.64,1.79A6.34,6.34,0,0,1,2046.71,362.65Z" transform="translate(-133.81 -115.03)"/><path class="cls-80" d="M2105.74,391A29.38,29.38,0,0,1,2099,395a18.7,18.7,0,0,1-7.3,1.36,13.82,13.82,0,0,1-6.48-1.46,10.67,10.67,0,0,1-4.31-4,10.2,10.2,0,0,1-1.51-5.41,9.7,9.7,0,0,1,2.5-6.72,12.46,12.46,0,0,1,6.85-3.72c.61-.14,2.12-.46,4.54-1s4.48-.94,6.2-1.35,3.59-.91,5.61-1.5a10,10,0,0,0-1.53-5.57c-.9-1.18-2.77-1.78-5.61-1.78a11.69,11.69,0,0,0-5.5,1,8.94,8.94,0,0,0-3.16,3.06,30.08,30.08,0,0,1-1.87,2.69,3,3,0,0,1-2.33.65,4.07,4.07,0,0,1-2.8-1,3.38,3.38,0,0,1-1.18-2.65,8.08,8.08,0,0,1,1.8-4.92,12.68,12.68,0,0,1,5.59-3.94,25.17,25.17,0,0,1,9.45-1.55,26.66,26.66,0,0,1,10,1.5,9.22,9.22,0,0,1,5.12,4.73,20.73,20.73,0,0,1,1.49,8.57c0,2.25,0,4.17,0,5.74s0,3.31-.05,5.23a19.27,19.27,0,0,0,.9,5.65,17.3,17.3,0,0,1,.89,3.78,3.52,3.52,0,0,1-1.38,2.68,4.67,4.67,0,0,1-3.15,1.22,4.26,4.26,0,0,1-2.92-1.39A20.83,20.83,0,0,1,2105.74,391Zm-.63-13.88a48.71,48.71,0,0,1-6.14,1.63q-4,.87-5.57,1.27a7.54,7.54,0,0,0-3,1.58,4,4,0,0,0-1.41,3.29,4.85,4.85,0,0,0,1.66,3.71,6.14,6.14,0,0,0,4.32,1.52,11.3,11.3,0,0,0,5.26-1.24,8.36,8.36,0,0,0,3.53-3.22q1.3-2.17,1.3-7.17Z" transform="translate(-133.81 -115.03)"/><path class="cls-80" d="M2158.62,364.38v27.87a29.22,29.22,0,0,1-1,8.23,13.17,13.17,0,0,1-3.27,5.7,13.72,13.72,0,0,1-5.89,3.34,32.26,32.26,0,0,1-9.05,1.09,26.45,26.45,0,0,1-8.86-1.39,15.25,15.25,0,0,1-6-3.59,6.52,6.52,0,0,1-2.11-4.52,3.71,3.71,0,0,1,1.19-2.86,4.09,4.09,0,0,1,2.88-1.11,4.75,4.75,0,0,1,3.7,1.86c.51.64,1,1.28,1.6,1.92a9.41,9.41,0,0,0,1.82,1.65,7,7,0,0,0,2.41,1,14.26,14.26,0,0,0,3.24.34,13.1,13.1,0,0,0,5.78-1,5.92,5.92,0,0,0,2.88-2.9,11.57,11.57,0,0,0,1-4q.13-2.13.21-6.84a15.8,15.8,0,0,1-5.12,4.71,13.91,13.91,0,0,1-6.9,1.62,14.57,14.57,0,0,1-8.42-2.46,15.69,15.69,0,0,1-5.54-6.89,25.4,25.4,0,0,1-1.93-10.23,24.41,24.41,0,0,1,1.17-7.81,16.55,16.55,0,0,1,3.36-5.87,14.4,14.4,0,0,1,5-3.6,15.78,15.78,0,0,1,6.26-1.22,15.07,15.07,0,0,1,7.06,1.57,17.25,17.25,0,0,1,5.56,4.9v-1.3a5.57,5.57,0,0,1,1.23-3.86,4,4,0,0,1,3.16-1.38c1.85,0,3.08.61,3.69,1.81A11.9,11.9,0,0,1,2158.62,364.38Zm-27.81,12.16q0,5.83,2.55,8.82a8.23,8.23,0,0,0,6.59,3,8.67,8.67,0,0,0,4.52-1.28,9.51,9.51,0,0,0,3.46-3.87,13.51,13.51,0,0,0,1.34-6.27c0-3.92-.87-7-2.59-9.14a8.24,8.24,0,0,0-6.8-3.27,8,8,0,0,0-6.59,3.13C2131.63,369.73,2130.81,372.7,2130.81,376.54Z" transform="translate(-133.81 -115.03)"/><path class="cls-80" d="M2193.32,379.21h-18.78a12.94,12.94,0,0,0,1.32,5.77,8.81,8.81,0,0,0,8.1,5,11.51,11.51,0,0,0,3.15-.4,10.09,10.09,0,0,0,2.76-1.27,20.2,20.2,0,0,0,2.46-1.84c.75-.66,1.72-1.55,2.92-2.67a3.17,3.17,0,0,1,2.11-.64,3.48,3.48,0,0,1,2.39.81,2.89,2.89,0,0,1,.91,2.29,6.23,6.23,0,0,1-1,3,12.11,12.11,0,0,1-3.07,3.34,17.41,17.41,0,0,1-5.17,2.65,22,22,0,0,1-7.15,1.06q-9.26,0-14.38-5.28t-5.14-14.3a24,24,0,0,1,1.27-7.9,17.4,17.4,0,0,1,3.69-6.24,16.12,16.12,0,0,1,6-4,21.57,21.57,0,0,1,7.87-1.39,18.59,18.59,0,0,1,9.65,2.38,15.49,15.49,0,0,1,6,6.13,16.1,16.1,0,0,1,2,7.67q0,3.62-2.08,4.69A13,13,0,0,1,2193.32,379.21Zm-18.78-5.45H2192c-.24-3.28-1.12-5.73-2.66-7.36a7.94,7.94,0,0,0-6.06-2.45,7.69,7.69,0,0,0-5.89,2.48C2175.8,368.08,2174.87,370.53,2174.54,373.76Z" transform="translate(-133.81 -115.03)"/><path class="cls-80" d="M2218.84,382.52v8a6.2,6.2,0,0,1-1.37,4.38,4.6,4.6,0,0,1-3.48,1.46,4.38,4.38,0,0,1-3.41-1.48,6.3,6.3,0,0,1-1.34-4.36V363.81q0-6.46,4.68-6.47a3.89,3.89,0,0,1,3.44,1.52,8.23,8.23,0,0,1,1.16,4.46,16.6,16.6,0,0,1,3.54-4.46,7.28,7.28,0,0,1,4.83-1.52,12.35,12.35,0,0,1,5.87,1.52c1.9,1,2.85,2.34,2.85,4a4,4,0,0,1-3.83,4.05,12.37,12.37,0,0,1-2.55-.65,11.68,11.68,0,0,0-3.57-.65,5.28,5.28,0,0,0-3.45,1.1,7.12,7.12,0,0,0-2.07,3.29,23.14,23.14,0,0,0-1,5.19Q2218.84,378.19,2218.84,382.52Z" transform="translate(-133.81 -115.03)"/></g></g></svg>